<?xml version="1.0" encoding="utf-8"?>
<!-- Generator: Adobe Illustrator 18.0.0, SVG Export Plug-In . SVG Version: 6.00 Build 0)  -->
<!DOCTYPE svg PUBLIC "-//W3C//DTD SVG 1.1//EN" "http://www.w3.org/Graphics/SVG/1.1/DTD/svg11.dtd">
<svg version="1.1" id="Livello_1" xmlns="http://www.w3.org/2000/svg" xmlns:xlink="http://www.w3.org/1999/xlink" x="0px" y="0px"
	 viewBox="0 0 1000 1000" enable-background="new 0 0 1000 1000" xml:space="preserve">
<g id="Livello_2" display="none">
</g>
<path fill="#FFFFFF" d="M449.8,170.8c3.4,0.2,6.8,0.7,10,0.9c2.3,0,4.3-0.5,6.6-0.7c0-0.5-0.2-0.9-0.2-1.4c-3.4-0.9-6.6-1.8-10.7-3
	c1.6-0.9,2.3-1.1,2.5-1.4c0.9-3.9-2.1-5-4.8-5.2c-2.7-0.2-5,1.4-5,4.6c0,2.1,0.5,3.9,0.9,5.9c-9.6,5.9-10.3,8.2-3.4,16.2
	c0.9-2.3,2.5-4.6,2.1-5.9C446.6,176.7,448.7,174,449.8,170.8z"/>
<path fill="#FFFFFF" d="M657.1,904.7c-3.9,2.5-7.5,5-11.9,8c1.8,2.1,3.4,3.6,5.2,5.7c9.6-4.3,18.5-8.7,27.6-12.5
	c4.6-2.1,4.8-4.8,2.7-9.3c-4.1,1.8-8,3.4-11.9,4.8C665.1,902.6,661,903.6,657.1,904.7c6.6-3.2,13.2-6.6,19.8-9.8
	c4.3-2.1,5.2-4.8,2.5-9.1c-13.7,5.9-27.1,11.6-40.6,17.3c2.1,5.7,5,6.6,9.6,4.3C650.9,906.3,654.1,905.6,657.1,904.7z"/>
<path fill="#FFFFFF" d="M240.8,839.3c8.7,6.2,17.3,12.3,27.1,19.2c1.8-1.8,3.4-3.2,5.2-4.8c-10.3-8.2-19.2-15.3-27.8-22.6
	c-2.1-1.6-3.2-4.3-4.6-6.6c11.4,9.1,22.6,18.2,34.4,27.6c2.3-2.1,3.9-3.6,5.7-5.5c-8-6.2-15.3-11.9-22.1-17.6
	c-2.3-1.8-3.9-4.6-5.9-6.8c2.1,1.4,4.3,2.5,6.2,4.1c8,6.2,16,12.5,24.2,19.2c2.5-1.8,4.6-3.2,6.6-4.6c-5.2-4.8-10-9.1-14.8-13.2
	c2.5,1.4,5,2.5,7.3,4.1c36,24.9,73.9,45.8,116.5,57.7c25.8,7.1,51.5,13.9,78.4,14.6c12.5,0.2,25.3-0.5,37.8,0
	c38.5,1.6,75.2-8.4,111-21c45.1-15.5,85.5-40.4,121.5-71.8c2.1-1.8,4.6-3,7.1-4.6c-1.8,2.1-3.4,4.6-5.5,6.2
	c-10.9,8.9-21.9,17.6-32.8,26.2c-0.5,0.5-0.7,1.4-1.4,2.3c2.5,1.4,4.6,2.5,7.3,4.1c13.9-11.4,27.4-22.6,40.8-33.7
	c-1.1-3.2-2.1-5-2.7-7.1c-2.3,0.9-4.1,1.8-5.9,2.5c1.4-1.8,2.5-3.6,4.1-5.2c5.7-5.7,11.4-11.2,17.6-17.1c-2.3-2.3-3.9-3.6-5.2-5
	c-2.5,1.4-4.6,2.3-6.6,3.4c1.1-2.1,2.5-4.3,3.6-6.6c-1.8-1.6-3.2-3-5.2-4.8c-3,3-5.5,5.7-8.2,8c-4.1,3.4-8.2,6.8-12.3,10
	c1.6-2.1,2.7-4.1,4.6-5.7c4.3-4.6,8.7-8.9,13-13.5c0.2-0.2,0.2-1.1,0.2-2.1c-1.4-1.4-3-2.7-4.1-3.9C744.6,775,733.7,785,722.8,795
	c-1.8,1.6-4.3,2.5-6.4,3.6c1.4-1.6,2.7-3.4,4.3-5c5.7-5.2,11.6-10.3,17.1-15.5c5.2-5,10.3-10.3,16-15.7c-2.5-2.3-4.1-3.6-5.9-5.5
	c-2.3,1.8-4.3,3.4-6.2,5c1.4-2.5,2.5-5,3.9-7.5c-1.1-1.4-2.1-2.3-3.2-3.4c-0.7-0.5-1.6-0.7-2.5-1.1c-1.1,0.9-2.3,1.8-3.2,3
	c-16.6,18.2-35.6,34-55.9,47.9c-8.4,5.7-17.6,10.3-26.4,15.3c3.4-2.5,6.4-5.2,10-7.5c26.4-16.2,50.2-35.3,71.1-57.9
	c0.9-0.9,1.6-2.3,2.7-3.9c-2.1-1.6-3.6-2.7-5.2-3.9c-132.7,142.3-338.6,134.7-462.8-1.1c-1.6,1.4-3.4,3-4.8,4.1
	c3,4.6,5.7,8.9,8.4,13c-3.4-3.2-7.1-6.6-10.9-10.3c-1.8,2.1-3.4,3.9-5,5.7C291.2,789.8,329,817.6,373,837
	c54.7,24.2,111.7,32.1,170.8,24.9c40.6-5,78.7-18.2,114.5-37.8c4.6-2.5,9.1-4.6,13.7-6.6c-1.6,1.4-3,3.2-4.8,4.3
	c-70.9,40.6-146.6,54.7-227.1,39c-49.5-9.6-94.2-30.1-134.5-60.2c-16.9-12.5-32.6-26.4-47-41.7c-0.9-0.9-2.1-1.6-3.6-2.7
	c-1.6,2.1-3,3.6-5.2,6.4c3.4,3,6.6,5.2,9.3,8.2c3.9,4.1,7.3,8.4,11.2,12.5c-7.3-6.4-14.6-12.5-23-20.1c-1.1,1.6-2.3,3.6-3.9,5.7
	c1.6,1.6,2.7,3.2,4.1,4.6c23.7,23.9,49.7,44.9,78.7,62.2c2.7,1.6,5.2,3.9,8,5.9c-3.4-1.4-6.8-2.5-10-4.3
	c-29.2-17.6-55.6-38.8-79.3-62.9c-1.1-1.1-2.5-2.3-3.9-3.4c-1.4,1.1-2.3,1.6-3,2.5c-0.9,0.9-1.4,2.3-2.3,3.4
	c18.5,18.5,37.4,35.3,58.4,50.2c59.3,41.7,124.7,65,197.4,67.7c38.1,1.4,75.7-3.4,112.2-14.6c50.4-15.3,95.5-40.4,135.4-74.6
	c8.4-7.3,16.6-14.8,25.1-22.1c-1.6,2.5-3,5.5-5,7.5c-7.3,6.8-14.8,13.7-22.6,20.1c-79.1,65-169.4,94.6-271.8,84.4
	c-44.2-4.3-85.7-17.6-125.2-37.8c-38.5-19.6-72.5-45.4-102.6-76.2c-0.9-0.9-2.1-1.8-3.6-3c-1.6,1.8-3.2,3.4-4.8,5.2
	c1.6,1.8,3,3.4,4.3,4.8c12.3,11.2,24.6,22.3,36.9,33.5c2.1,1.8,3.9,4.1,5.7,6.2c-2.5-1.6-5.5-3-7.8-4.8
	c-7.5-6.2-14.8-12.5-22.6-19.2c-1.1,2.7-2.1,5-2.7,7.1c3.9,4.1,7.3,8,10.7,11.6c-3.9-2.5-8-4.8-12.1-7.5c-2.7,3.2-3.2,6.4,0,9.8
	c-1.4,0-2.7,0.2-4.3,0.2c-0.7,2.3-1.6,4.6-2.3,6.6c2.5,3,4.6,5.5,6.6,8c-2.7-1.4-5.2-2.5-8.4-4.1c-0.7,2.5-1.6,4.8-2.3,7.5
	c9.6,7.5,18.7,14.8,28,22.1c2.3-2.1,3.9-3.6,5.9-5.5c-6.6-5.2-12.8-9.8-18.5-14.8C243.7,843.4,242.4,841.3,240.8,839.3z"/>
<path fill="#FFFFFF" d="M492,138.4c2.5,0.5,5.2,0.5,7.5,1.4c5.2,2.1,6.8-1.1,8.7-5c-5.7-0.2-10.9,0-16-0.9c-7.1-1.6-12.3,0.9-17.3,5
	c-3,2.3-5.7,4.8-8.7,7.3c2.3,2.3,2.7,4.8-0.7,7.1c-1.8,1.1-3.2,3-5,4.6l0,0c0,1.1,0,2.1-0.2,2.7c9.3,1.8,16.2-0.2,18.5-10.3
	c0.2-0.9,1.1-1.8,1.6-2.7c3.4,1.1,7.1,2.3,10.5,3.4c5.9,1.8,8.9-0.2,10.3-6.8C498.2,142.3,495,140.2,492,138.4z"/>
<path fill="#FFFFFF" d="M756.5,832.9c2.3-2.5,4.3-5.2,6.6-7.5c4.3-4.3,4.3-4.3,1.1-10.9c-13.2,10.7-26.2,21.7-40.4,33.3
	c3.6,1.6,6.2,2.7,8.7,3.9c2.1,2.3,3.9,4.3,6.6,7.3c11.4-9.3,22.1-18,33.1-26.9c-1.4-3.2-2.3-5.2-3.2-7.3
	C764.2,827.9,760.4,830.4,756.5,832.9z"/>
<path fill="#FFFFFF" d="M349.5,711.8c1.6,0.9,3.4,1.8,5,3c8.9,6.6,17.8,13.2,27.4,20.3c2.1-2.7,3.6-4.8,5.5-7.3
	c-19.8-11.6-36.5-25.8-51.8-42.2c-1.8,2.5-3,4.3-4.3,6.4c3,3.2,5.7,6.2,8.4,8.9c3.4,3.6,6.8,7.5,10.3,11.2c-1.6-0.9-3.6-1.4-5-2.7
	c-4.6-4.3-8.9-8.9-13.2-13.5c-0.5-0.5-1.4-0.7-2.3-1.1c-0.9,0.9-1.6,1.8-2.3,2.7c-0.7,1.1-1.4,2.3-1.8,3.6
	c14.8,16.2,31.2,30.1,49.9,41.5c1.8-2.1,3.4-3.9,5-5.9c-8.7-6.4-16.6-12.1-24.6-18.2C353.2,716.8,351.6,714.1,349.5,711.8z"/>
<path fill="#FFFFFF" d="M625.9,734.6c1.1,2.5,2.3,5.2,3.9,8.4c19.8-12.1,36.5-25.5,51.1-42.6c-1.6-2.1-3-3.9-4.8-6.2
	c-7.3,6.8-13.7,13.9-21,19.8c-5.9,5-12.8,9.1-19.4,13.7c2.1-1.8,3.9-3.9,5.9-5.7c9.8-8.9,19.6-17.6,29.2-26.7
	c4.1-3.9,3.9-4.3-1.6-9.3c-15.3,16-31.9,30.3-52,42.4C620.8,731,623.3,732.8,625.9,734.6z"/>
<path fill="#FFFFFF" d="M632.7,645c0-3.9-1.8-6.4-5.7-7.8c-14.6,16.2-31.5,29.6-51.3,40.6c2.1,2.5,3.9,4.3,5.5,6.2
	c12.5-6.8,23.7-14.4,34-23.7c5.9-5.2,11.9-10.5,17.8-15.7c-3.2,3.9-6.2,8.2-9.8,11.9c-11.2,11.4-24.2,20.1-37.8,28
	c-0.7,0.5-0.9,1.1-1.8,2.3c1.8,1.8,3.4,3.6,5.7,6.4c10.5-7.8,20.5-15,30.8-22.6c2.5-1.8,5-3.6,7.5-5.5c-1.8,2.3-3.2,5.2-5.5,6.8
	c-9.6,7.1-19.4,13.9-29.2,21c-0.7,0.5-1.1,1.1-1.8,2.3c1.8,1.8,3.4,3.6,4.6,5c4.8-1.8,8.9-3.6,12.8-5.2c-3.4,2.7-6.8,5.5-10.5,8.4
	c1.8,2.1,3.2,3.6,5.2,5.9c5.9-3.9,11.4-7.8,17.1-11.4c4.1-2.7,8.4-5.5,12.5-8.2c-2.5,2.5-4.8,5.7-7.5,7.8
	c-5.9,4.3-12.3,8.4-18.5,12.5c-0.7,0.5-0.9,1.1-1.6,2.1c1.6,1.8,3,3.4,5,5.7c7.1-5,13.9-9.6,20.5-14.4c4.1-3,8.2-5.9,12.5-8.9
	c-1.4,1.8-2.3,3.9-3.9,5c-8.9,6.8-17.8,13.5-27.1,20.5c1.4,1.8,3,3.6,4.6,5.9c19.8-12.1,37.2-26.2,52.7-44.5
	c-2.7-2.1-5.2-3.9-7.5-5.7c0.5-3.6-0.9-6.4-5-8.7c-1.1,1.4-2.1,3.2-3.6,4.6c-6.8,6.2-13.7,12.3-20.7,18.2c2.3-2.7,4.8-5.5,7.1-8
	c5.5-5.7,10.9-11.4,16.6-17.3c-2.7-2.1-4.3-3.4-6.2-4.8c-6.8,6.8-13,13.7-20.1,19.6c-6.8,5.9-14.6,10.7-21.9,16
	c2.5-2.5,5-5.2,7.8-7.5c11.6-8.9,22.6-18.5,33.1-31.2c-1.8-1.6-3.6-3.2-5.9-5.2c-3.4,3.6-5.7,6.6-8.4,9.1c-2.3,2.1-4.8,3.4-7.3,5.2
	c4.3-5.2,8.7-10.3,12.8-15.5C638.4,646.4,636.6,644.3,632.7,645z"/>
<path fill="#FFFFFF" d="M368.7,700.4c-1.6-0.9-3.6-1.6-5-2.7c-7.3-6.8-14.6-13.7-22.1-21c-1.4,2.3-2.7,4.3-4.1,6.4
	c14.8,18,32.4,31.5,52,43.3c1.6-2.3,3-4.3,4.6-6.4c-4.6-3.2-8.9-5.7-12.5-8.7C377.1,707.9,372.8,704.1,368.7,700.4
	c2.5,1.4,5,2.5,7.3,4.1c6.6,4.6,13,9.1,19.8,13.9c2.3-2.5,3.9-4.3,5.2-5.9c-11.2-8.7-22.3-16.6-33.1-25.3c-6.2-5.2-13.2-10-16.4-18
	c2.1,1.6,4.1,3,5.9,4.8c6.6,5.9,12.8,12.3,19.6,17.8c8.2,6.6,16.4,13.2,26.4,17.8c1.6-2.1,3-3.6,4.6-5.9c-4.1-2.5-7.8-4.6-11.2-7.3
	c-6.8-5.2-15.3-9.1-19.8-16.9c2.3,1.4,4.8,3,7.1,4.6c8.4,5.9,16.9,11.9,26.2,18.5c2.3-3.4,3.9-5.9,5.2-8.4c2.3-2.7,4.8-5.2,7.1-8
	c2.3-2.3,4.6-4.6,7.5-7.5c-21-10.7-37.6-25.1-52.7-41.7c-2.1,2.1-3.6,3.4-5.7,5.5c2.7,3.2,4.8,6.2,7.3,8.7
	c11.4,11.4,23.9,21.4,37.6,30.1c2.3,1.4,4.1,3.6,6.2,5.5c-8.7-5.5-17.8-10.3-26-16.6c-9.6-7.5-18.5-16.4-28-25.1
	c-1.4,1.6-3,3.2-4.8,5.2c10.7,12.3,21.9,22.8,34.7,31.7c5.9,4.1,11.4,8.4,17.1,12.8c-2.1-0.9-4.3-1.4-6.2-2.5
	c-6.8-4.6-13.9-9.1-20.3-14.4c-9.3-7.8-18.2-16.4-27.6-24.9c-1.4,1.1-3,2.7-5.2,4.8c4.8,5,9.3,9.8,13.7,14.6
	c2.5,2.7,4.8,5.5,7.3,8.2c-5.5-4.6-10.9-9.1-16.4-13.9c-2.3-1.8-4.3-4.1-6.2-5.9c-4.6,2.7-5,5.7-3.2,9.6c-4.3-1.4-6.8,0.5-7.5,6.2
	c6.4,6.4,13.7,13.2,20.5,20.1C366.2,696.8,367.5,698.6,368.7,700.4z"/>
<path fill="#FFFFFF" d="M680.6,746.9c1.1-1.6,2.1-3.2,3.4-4.6c4.8-4.8,9.8-9.6,14.8-14.4c0.2-0.2,0.2-0.9,0.5-1.6
	c-0.7-0.9-1.4-1.8-2.1-2.7c-0.7-0.7-1.4-1.6-2.1-2.1c-1.1,0.5-1.6,0.7-2.1,1.1c-14.4,14.1-29.4,27.4-46.5,38.3
	c-4.6,3-3.4,6.4-1.4,10.9c4.6-3.2,8.7-6.2,13-8.9c4.1-2.5,8.2-5,12.3-7.5c-6.8,5.2-13.5,11.2-20.7,16c-5.2,3.4-7.8,7.5-8.2,14.8
	c3.2-1.8,5.5-3.2,7.8-4.6c8.2-5,16.2-10.3,24.4-15.5c-2.5,2.5-5,5.2-8,7.5c-11.6,9.1-26,14.8-36.7,25.3c-2.1,2.1-5.5,3.2-8.2,4.6
	c-30.6,14.6-62.7,21.7-96.2,24.6c-34.4,3.2-68.2-1.4-101.5-10.5c-24.6-6.8-48.1-16.4-67-34.4c2.3,0.5,4.6,0.9,6.8,1.4
	c0.2-6.6-3-10-7.5-13.2c-10.9-7.3-21.4-15.3-31.9-23.3c-2.1-1.6-3.6-4.1-5.5-6.2c2.5,1.6,5.2,3.2,7.5,5c9.6,7.1,19.4,14.4,29,21.2
	c1.8,1.1,3.9,2.1,5.9,3c1.8-5.2,0.5-8.2-3.6-11.4c-12.8-9.6-25.3-19.6-37.6-29.6c-3-2.5-5.7-5.5-9.1-8.4c-1.8,2.1-3.2,3.6-4.8,5.7
	c2.3,2.5,4.6,4.8,6.6,7.1c2.3,2.5,4.3,5,6.4,7.5c-5-4.1-10.3-8-15.5-12.3c-1.6,1.1-3.4,2.3-5.5,3.9c1.8,3,3.6,5.5,5.2,8
	c-2.1-1.6-4.1-3-6.2-4.8c-3.4-3.2-6.8-3-11.4-0.5c3.2,3.4,5.9,6.2,8.7,9.1c3.6,3.9,7.1,8,10.7,11.9c-3.2-2.5-6.4-4.6-9.3-7.3
	c-4.3-4.1-8.4-8.7-12.5-13c-1.8-1.8-3.6-2.7-5.7-0.2c47.9,58.6,141.4,109.7,245.3,102.6c56.8-3.9,108.1-23,154.4-55.6
	c18.9-13.5,36.3-28.5,52-46.3c-5-3.2-6.6,0-8.9,2.1c-10.5,9.8-21,19.6-31.5,29.2c-1.1,1.1-3,1.4-4.3,2.3c1.8-2.1,3.6-4.1,5.7-5.9
	c8.7-8,17.3-16,25.8-23.9c1.4-1.4,2.3-3.4,3.6-5.2c-5.5-2.3-8.9-0.9-12.3,2.5c-8.7,8.2-17.8,16.2-26.9,23.9
	c-1.8,1.6-4.3,2.5-6.4,3.6c1.4-1.4,2.5-3,3.9-4.3c10.3-9.1,20.7-18.2,31.7-27.8c-3.2-2.1-5-3.4-7.3-5c-3.9,3.6-7.3,7.1-10.9,10.3
	C687.4,741.9,684,744.4,680.6,746.9z"/>
<path fill="#FFFFFF" d="M412,638.2c-2.5-1.8-5.2-3.2-7.5-5.5c-3.4-3.4-6.6-7.1-10-10.7c-0.5-0.7-1.4-0.7-2.5-1.4
	c-1.6,1.6-3,3.2-4.6,5c0.9,1.4,1.4,2.3,2.3,3.2c16.9,18.2,35.6,33.3,60.4,40.8c24.4,7.3,48.6,12.1,73.6,7.8
	c22.3-3.9,44.5-8.7,63.4-22.6c1.4-0.9,2.7-2.1,4.3-3c9.6-7.3,18.5-15.5,26.2-25.3c-2.3-1.8-4.1-3.4-5-4.1c-5.7,5.2-10.7,10-16,14.6
	c-44.7,39.9-109.2,47.2-161.9,18c-5.9-3.2-10.7-8-16.2-12.1c2.5,1.4,5,2.5,7.3,3.9c47.9,32.4,112.6,31,158.9-3.6
	c9.3-7.1,18-14.8,25.1-24.6c-2.1-1.6-3.4-2.7-4.8-3.9c-53.8,64.5-151.8,64.3-205.4-0.7c-1.8,1.1-3.6,2.3-5.5,3.6
	c4.3,5,7.8,8.4,10.9,12.1C407.4,632.5,409.7,635.4,412,638.2z"/>
<path fill="#FFFFFF" d="M801.6,146.8c-4.8,2.1-9.3,4.3-14.1,6.4c-0.2-0.5-0.5-0.7-0.7-1.1c5-3.6,9.8-7.1,14.8-10.7
	c-0.5-0.7-0.9-1.6-1.6-2.3c-9.6,4.6-20.7,6.2-27.1,16.6c-1.8,3-3.6,6.2-6.4,7.8c-10.9,6.8-22.6,12.1-35.6,14.4
	c-22.6,3.9-43.8,11.9-61.3,27.4c-2.7,2.3-6.4,4.3-9.8,5c-20.5,3.4-39,11.2-55.9,23.5c-0.5,0.5-1.6,0.2-2.5,0.2
	c1.4-2.1,2.7-3.9,3.9-5.9c-8-2.7-15.7-2.3-22.6,0c-10.5,3.4-20.5,8.7-30.6,13c-0.2,0.2-0.2,0.9-0.7,2.5c3.6,1.1,7.3,3.2,10.9,3
	c17.6-0.9,35.1-0.9,52.2,4.1c1.8,0.5,4.1-0.2,6.2-0.2l0,0c6.8,7.1,9.3,7.8,17.8,3.4c8.9-4.6,17.6-9.8,26.7-13.9
	c5.9-2.7,12.3-4.1,18.7-5.9c1.8-0.7,4.1-0.2,5.9-1.1c14.4-6.6,29.6-10.9,42.9-20.1c11.6-8,23.5-15.5,35.1-23.5c4.6-3,9.3-5.2,15-5.7
	c3.9-0.2,8.2-1.6,11.2-3.9c7.3-5.2,15.3-9.1,23.3-12.8c2.1-0.9,5.2-1.6,4.3-5.2c-8.4,0-14.1,2.5-18.7,8.9c0.7-5.7-0.9-9.6-6.6-13.7
	c-1.4,12.1-8.4,18-18,21.7c-0.9-3.2-4.3-6.2-0.9-10.9c3.6,3.6,8.4,5,11.9,1.1c2.7-3.2,3.4-8.2,5.2-13c1.6-0.5,3.9-1.1,6.4-1.8
	C801.2,151.6,801.2,149.1,801.6,146.8c6.4-3,12.3-6.8,19.2-11.6C809.8,134.1,807.1,135.7,801.6,146.8z"/>
<path fill="#FFFFFF" d="M486.5,210.9L486.5,210.9c0.2,1.1,0.5,2.3,0.7,3.2c2.5,9.8,3.6,10.7,13.9,10.9c1.6,0,3.4,0.9,5,0.9
	c2.5-0.2,5.5,0,7.3-1.4c5.9-3.9,10.3-9.3,10.7-16.6c0.2-3.6,0.9-6.4,3.4-9.1c5-5.9,3-13,3.6-19.8c0.5-4.3-1.8-6.8-4.3-9.8
	c-3-3.2-4.6-6.8-3.9-11.6c1.4-8.7,0.5-9.6-8-9.8c6.6-3,9.8-1.8,10.5,4.6c0.2,2.5-0.2,5.2-0.2,7.8c0.2,3.6,1.4,6.6,5.7,7.1
	c7.3,0.9,7.3,0.9,8,8.7c0.7,6.6,3.4,9.1,10,10.5c1.1,0.2,2.3,1.6,3.2,2.3l0.2-0.2c-3,0.2-6.2,0.2-9.1,0.5c0,0.5,0,1.1,0,1.6
	c2.7,0.5,5.2,1.1,8.7,1.8c1.4,4.6,2.5,9.3,3.9,14.1c-1.8,0.5-3.4,0.7-4.6,0.9c-0.2,3.9,4.8,5.9,2.3,9.8c-3.6-1.6-3.6-6.8-7.5-8
	c1.1,5.9,2.3,11.2,3.4,16.9c7.8-4.8,9.8-12.5,9.1-22.3c3.9,3,4.3,5.7,3.6,8.4c-1.1,4.1-2.5,8.4-5,11.6c-4.1,5.5-9.3,10.3-14.6,16
	c2.1,0.5,3.6,1.4,4.8,0.9c6.6-2.7,13.7-4.8,19.6-8.4c12.1-8,25.1-8.9,38.8-7.1c2.5,0.5,5.9,0,8-1.1c13.2-8.2,27.4-13,42.6-15.5
	c4.3-0.7,8-2.5,11.4-5.2c17.3-15.3,38.1-23.5,60.4-27.1c13.2-2.1,24.4-8.2,35.8-14.4c1.6-0.9,3.4-2.5,4.3-4.1
	c7.1-13.7,20.1-17.8,33.5-21.4c1.4-0.5,3-0.9,4.3-1.4c0-0.2-0.2-0.7-0.2-0.9c-92.3,0-184.5,0-276.8,0c7.5,6.2,16.4,10.3,16.9,20.5
	c4.6,1.4,9.8,1.4,11.4,3.9c2.1,3,0.9,8,1.1,12.5c3.9,0.5,6.2,3,6.2,7.5c0,3.2-0.9,4.3-4.8,6.4c0-0.9,0-1.8,0.2-2.5
	c1.8-7.1,1.8-6.8-5.5-8.2c-5.7-0.9-7.8-3.6-9.1-11.4c2.3,0,4.3,0.2,8.2,0.5c-2.7,1.6-4.1,2.3-5.9,3.2c2.1,1.4,3.9,2.7,5.5,3.6
	c0.9-0.7,1.4-0.9,1.6-1.4c2.1-3.4,3.2-7.5-0.5-10c-4.1-2.7-6.6,1.1-8.4,4.1c-0.9-2.5-2.1-5-3-7.5c-1.1-3.2-1.6-7.3-3.9-9.1
	c-4.8-4.1-10-7.8-15.7-10.3c-3.2-1.4-9.3-1.6-11.2,0.5c-3.4,3.9-9.8,6.8-8,14.8c5.2,0.5,10.7,1.1,16.4,1.8c0,0.7,0,1.4-0.2,1.8
	c-12.3,0-24.6,0-36.9,0c-0.2,0.2-0.5,0.5-0.5,0.7c-0.9,6.2,0.7,13.2-6.8,16.6c-0.7,0.5-1.1,1.8-1.6,3c-1.6,7.5-3.2,15,1.8,22.3
	c1.4,2.1,2.1,4.8,3,7.1c0.2,0.5,0.5,0.7,1.1,1.6c0.9-2.5,1.4-4.3,2.1-6.4c1.6,2.1,1.6,3.6,1.6,5.5c-0.2,2.5-0.7,5-0.7,7.5
	c0,0.5,1.6,0.9,2.5,1.4C486.1,212.5,486.3,211.6,486.5,210.9z"/>
<path fill="#FFFFFF" d="M524.4,233.7L524.4,233.7c0-2.5-0.2-5.2-0.5-9.6c-8.2,10.5-17.8,13.5-29.9,9.8c2.7,8.7,5.2,16.2,7.5,23.7
	c-0.7,0.2-1.1,0.5-1.8,0.7c-2.3-6.4-4.8-12.8-6.8-19.2c-2.3-7.1-6.6-12.1-14.8-15.7c1.4,8.7,2.5,16.2,3.9,23.7
	c-0.5,0.2-0.9,0.2-1.4,0.5c-1.1-3.4-2.1-6.6-3.2-10.7c-2.1,2.7-3.9,5-6.6,8.4c0.7-3.4,0.9-4.8,1.4-6.8c-7.3,3.6-13.9,6.8-22.3,10.9
	c5,0.9,8,1.8,10.9,2.3c8.2,0.9,16.6,1.4,24.9,2.1c3,0.2,6.4,0,7.1,3.6c-4.3-0.5-8.4-0.5-12.5-1.1c-9.3-1.1-19.4-0.9-27.8-4.3
	c-12.8-5-24.6-2.1-36.7-1.6c-0.5,7.3-0.9,13.9-1.1,20.5c0,1.4-0.5,3.2,0.2,4.1c4.8,6.4,9.1,13.5,18,18.2
	c-3.4-7.5-9.1-11.9-10.3-20.7c2.1,3.2,3.2,4.8,4.3,6.6c6.6,9.3,13,18.9,19.6,28.3c4.6,6.6,10.5,10.7,18.7,10.3
	c10-0.7,20.1-1.6,29.9-2.7c2.3-0.2,4.3-1.1,6.4-1.8c0.2,0.7,0.2,1.4,0.5,2.1c-10.3,5-21.4,7.3-32.6,8.7c-10.5,1.4-19.4-3.2-28-9.3
	c1.1,3.4,2.3,6.8,3.2,10.3c-0.5,0.2-1.1,0.7-1.6,0.9c-2.7-1.6-5.5-3.2-8.2-4.8c3.9,21.2,8.9,46.7,16.4,60.4
	c-1.6,7.3-3,14.1-4.8,21.2c-3.2,12.5-0.7,18.2,11.2,24.2c0.2,0.2,0.2,0.9,0.2,2.3c-4.1-1.8-8-3.4-12.1-5c-1.1,3.9-2.3,7.5-3.4,10.9
	c-1.6,4.6-0.7,7.8,3,11.4c17.8,17.1,35.1,34.7,52.7,52c1.4,1.4,3,2.3,5,3.9c20.7-21.4,41-42.4,62.2-64.1c-1.1-4.1-2.5-9.6-3.9-15
	c-3.2,1.1-5.5,2.1-7.5,2.7c10.7-6.2,10.7-15,7.5-25.1c-0.7-1.8-1.1-3.9-1.4-5.9c-1.4-7.3-4.3-14.8,1.1-21.9c0.9-1.1,0.9-2.7,1.4-4.1
	c2.1-9.6,4.3-18.9,6.4-28.5c3.6-16.6,7.3-33.1,19.6-46.1c1.8-1.8,1.6-5.5,2.3-8.2c-9.6,5.7-17.1,12.3-21.7,22.1
	c-4.6,10.3-12.8,14.8-24.2,14.8c-10,0-19.2-3-28.5-5.7c-3-0.9-5.7-2.5-5.5-6.4c3.4,1.6,6.2,3.9,9.3,4.3c9.1,1.1,18.2,1.8,27.4,2.3
	c7.3,0.5,13.2-3,16.2-9.3c4.3-8.9,11.2-14.8,18.5-20.7c2.3-1.8,4.6-3.6,6.2-5.9c1.4-1.6,2.7-3.9,2.7-5.9c0.2-8.2,0.2-16.4,0.2-25.3
	c-13.9-0.5-26.7-2.3-39.9,2.5c-11.6,4.3-23.9,4.6-36.3,3.2c12.5-3.6,26.4-0.9,39.7-7.8c-6.2-2.7-10.9-5-16-7.3
	C534,238.5,529.2,236,524.4,233.7z"/>
<path fill="#FFFFFF" d="M780,777.7c21.9,21.9,43.5,43.3,65,64.5c203.8-199,179.9-512.5,10.9-681.3c-22.8,22.6-45.4,45.1-68.4,67.9
	c72,78.4,108.8,170.1,107.2,275.6C892.6,609.9,853.2,700.4,780,777.7z"/>
<path fill="#FFFFFF" d="M148,161.4C-36.9,352.9-25.8,665.8,159.4,840.6c21.2-21.4,42.4-42.9,63.8-64.5
	c-71.1-75.9-110.4-166-112.4-271.1C109,399.2,145,307.8,216.6,229.6C193.6,206.6,170.8,184,148,161.4z"/>
<path fill="#FFFFFF" d="M475.6,134.7c-33.7-3.6-269.7-2.7-275.4-1.1c6.8,2.7,14.8,6.2,22.6,8.9c6.4,2.3,10.5,6.6,13.5,12.5
	c1.4,2.7,4.1,5.5,6.8,7.1c11.9,6.6,24.2,11.4,37.8,13.9c20.5,3.9,39.9,11.4,55.9,25.3c4.6,3.9,9.3,6.2,15.3,7.1
	c12.3,2.1,24.2,5,34.9,11.6c5.7,3.4,11.2,4.8,17.8,4.1c8.9-0.9,17.8-0.7,26.2,3.2c7.5,3.6,15.3,7.1,23,10.5c-0.7-3.9-3-6.2-4.6-8.9
	c-3.4-5.9-10-10.5-8-17.1c-2.7-4.8-6.4-8.7-6.6-12.5c-0.2-3.9,3.2-8,5.5-12.5c-4.8-9.6-4.6-10.5,5-18.5c-0.2-10,0-10.3,8.9-12.8
	c3.9-5,6.4-9.3,10-12.8C467.6,139.8,471.7,137.5,475.6,134.7z"/>
<path fill="#FFFFFF" d="M564.3,573.6c-16.2,21.9-36.7,32.6-62.7,32.4c-25.8-0.5-46.1-11.9-61.3-32.6c-12.1,12.3-23.3,23.9-34.7,35.6
	c50.2,65,147.7,61.6,193.1,0.7C587.6,597.8,576.2,586,564.3,573.6z"/>
<path fill="#FFFFFF" d="M183.3,161.9c3.6,5.7,8.2,7.8,12.8,8.7c7.3,1.4,11.2,7.8,17.6,10.3c6.6,2.5,14.1,3.4,20.1,6.8
	c12.5,7.1,24.6,14.8,36.5,22.8c17.1,11.4,36,18.7,55.6,23.9c7.1,1.8,14.1,5,20.7,8c8,3.9,15.7,8.4,23.5,12.5c6.2,3.2,7.1,3,13.5-1.8
	c-6.2-3.2-12.3-6.2-18.2-9.6c-5.7-3.4-11.4-7.1-16.9-10.7c0.2-0.5,0.7-0.9,0.9-1.4c1.1,0.7,2.3,1.1,3.4,1.8c8.9,5,18,10,26.9,15.5
	c5.5,3.4,10.7,4.1,17.1,2.3c14.6-4.6,29.9-5.2,45.1-3.9c5,0.5,8.7-0.5,12.5-5c-4.1-2.1-7.5-3.9-11.2-5.5c-3.9-1.8-8-3-11.6-5
	c-9.6-4.8-19.6-4.3-30.6-3.6c3.9,6.6,11.9,9.1,12.3,17.6c-3.6-4.1-6.6-8.2-10.3-11.2c-11.6-9.1-24.4-16.6-38.8-19.8
	c-14.1-3-26.9-7.3-38.5-16.9c-12.5-10.3-28.3-15.3-44.2-18.2c-15.3-2.7-29.4-7.8-42.6-15.7c-1.6-0.9-3.4-2.5-4.1-4.1
	c-4.1-11.9-15.3-14.8-25.1-19.2c-1.1-0.5-3,0-4.3,0c-0.2,0-0.2,0.5-0.5,0.9c5,3.6,9.8,7.3,14.8,10.9c-0.2,0.5-0.7,1.1-0.9,1.6
	c-3.4-1.6-6.6-3.4-10.5-5.2c-1.1,2.1-2.3,3.9-3.6,6.2c6.4,1.1,9.6,4.3,10.5,10.3c0.7,4.1,4.1,6.2,8,6.8c1.8,0.5,3.6,0.5,7.1,0.7
	c-2.1,1.8-3,3.4-3.9,3.4c-9.6,0-13.7-7.8-18.5-16.6c-1.8,5-3,8-4.3,11.4C198.6,164.2,192.2,161.9,183.3,161.9z"/>
<path fill="#FFFFFF" d="M557.7,570.7c-19.2-19.8-37.4-39-56.3-58.6c-18.9,18.7-37.4,37.2-55.6,55.4
	C470.8,609.9,535.6,608.5,557.7,570.7z"/>
<path fill="#FFFFFF" d="M259.7,259.7c-0.2,0.7-0.5,1.1-0.7,1.8c5.2,5.2,10.5,10.5,15.5,15.7c16,16.4,16.2,16.4,39,15.7
	c3.9-0.2,8-0.9,11.9-1.6c4.6-0.7,9.1-1.6,13.7-1.6c7.5,0,14.8,0.7,22.3,1.4c2.7,0.2,5.9,0.2,8.4,1.1c13.9,4.6,27.6,1.4,41.3-1.6
	c1.1-14.1-0.5-16.9-13.7-21.7c-4.3-1.6-8.7-2.7-13-4.3c-15.7-5.7-31.5-5.9-47.2-0.2c-4.3,1.6-7.8,1.1-11.4-0.9
	c-7.1-3.6-14.6-5-22.3-5c-8.9,0-17.8-0.2-26.7-0.2C271.1,258.5,265.4,259.2,259.7,259.7z"/>
<path fill="#FFFFFF" d="M593.3,290.9c8.4,1.1,16.4,2.5,24.4,3.4c3.4,0.5,7.1,1.1,10.3,0c10.7-3.6,21.4-2.7,32.4-3
	c6.6-0.2,13-0.2,19.6,0.2c8.7,0.5,17.1,1.1,25.5,1.6c5.2,0.5,9.3-1.6,13-5.5c7.3-7.5,15-15,22.3-22.6c1.4-1.4,2.3-3,4.1-5.2
	c-16.6-2.1-31.9-2.3-47.4-0.5c-6.4,0.9-12.5,3.6-18.9,5c-2.5,0.5-5.7,0.5-8.2-0.5c-23.5-8.2-45.1-2.1-66.6,7.8
	C595.8,275.4,591.2,281.6,593.3,290.9z"/>
<path fill="#FFFFFF" d="M438.2,669.2c-21-10.3-38.3-23.9-53.6-42.2c-2.1,2.1-3.9,3.9-5.9,5.9c15.5,18.5,32.8,32.4,53.1,42.6
	C433.9,673.5,435.5,671.9,438.2,669.2z"/>
<path fill="#FFFFFF" d="M365.9,754c-17.1-13.9-33.3-27.4-49.7-41c-1.1,1.6-2.5,3.6-3.9,5.9c15.3,16.2,32.1,29.6,50.6,41.3
	c1.1-1.8,1.8-3.2,2.3-4.3C365.7,755.1,365.9,754.2,365.9,754z"/>
<path fill="#FFFFFF" d="M574.1,675.6c19.8-10.9,36.9-23.9,51.3-41.5c-2.3-1.8-4.1-3.4-6.2-5c-14.4,17.1-31.5,29.9-51.5,40.6
	C570.2,671.9,571.8,673.5,574.1,675.6z"/>
<path fill="#FFFFFF" d="M682.9,704.3c-16.9,13.9-33.3,27.6-50.4,42c1.4,1.6,3,3.4,4.6,5.2c18.9-12.8,35.8-25.5,49.9-42
	C685.1,707.3,683.8,705.4,682.9,704.3z"/>
<path fill="#FFFFFF" d="M689.2,713c-16.6,13.9-33.1,27.4-49.7,41.3c1.1,1.8,2.5,3.9,3.6,6.2c18.5-12.3,35.6-25.8,50.2-42.2
	C691.5,715.9,690.2,714.1,689.2,713z"/>
<path fill="#FFFFFF" d="M318.7,709.3c10.3,13,36.9,34.7,49.9,40.8c1.4-1.6,2.7-3.2,3.9-4.3c-16.9-13.9-33.3-27.6-50.2-41.3
	C321.7,705.7,320.3,707.5,318.7,709.3z"/>
<path fill="#FFFFFF" d="M329,864.1c-2.3,4.6-1.6,7.5,2.7,9.6c14.6,6.6,29.2,13.2,44.2,20.1c2.1-2.5,3.4-4.6,5-6.4
	C363.4,879.4,346.3,871.9,329,864.1z"/>
<path fill="#FFFFFF" d="M676.5,864.3c-17.1,7.5-34.2,15-51.3,22.6c1.8,4.8,4.6,6.2,8.9,4.3c12.8-5.7,25.8-11.2,38.5-17.1
	C678.3,871.6,678.1,871.4,676.5,864.3z"/>
<path fill="#FFFFFF" d="M581.6,899.7c-18.7,2.5-36.9,5.2-55.2,7.8c0.2,5.5,2.7,7.1,7.3,6.6c14.4-2.1,28.7-4.1,43.1-5.9
	C581.4,907.2,581.9,904,581.6,899.7z"/>
<path fill="#FFFFFF" d="M480.2,907.4c-18.7-2.7-36.9-5.2-55.2-7.8c-0.9,4.6,0,7.1,4.3,8c15.7,3.2,31.5,5.9,47.9,6.2
	C478.1,911.8,479,909.9,480.2,907.4z"/>
<path fill="#FFFFFF" d="M594.8,272.5c10.9-4.3,21.7-8.7,33.3-13.5c-11.4-3.9-21.7-8.2-33.3-8.7C594.8,258.1,594.8,265.4,594.8,272.5
	z"/>
<path fill="#FFFFFF" d="M326,882.8c14.8,6.4,29.2,12.8,43.8,18.9c1.8-2.7,3-4.6,4.3-6.6c-15.7-6.8-30.8-13.7-46.3-20.5
	C327.4,877.1,326.9,879.4,326,882.8z"/>
<path fill="#FFFFFF" d="M678.8,874.6c-16.2,7.1-31.7,13.9-48.8,21.4c2.5,2.7,4.3,4.3,5.7,5.9c15.7-6.8,29.9-13.2,43.5-19.2
	C679.2,879.6,679,877.8,678.8,874.6z"/>
<path fill="#FFFFFF" d="M579.8,910.6c-16.6,2.3-32.8,4.3-49.2,6.6c2.1,7.1,2.1,7.3,7.5,6.6c12.1-1.6,24.4-3.4,36.5-5
	C579.6,918.1,580.7,915.4,579.8,910.6z"/>
<path fill="#FFFFFF" d="M426.4,910.4c0.9,7.3,0.9,7.8,5.5,8.4c11.9,1.8,23.7,3.4,35.6,5.2c5,0.7,7.5-1.1,8-6.8
	C459,915,442.8,912.7,426.4,910.4z"/>
<path fill="#FFFFFF" d="M411.5,251.9c-8.4-0.5-22.6,3.2-30.6,8.2c5.7,1.8,10.7,3.4,15.7,5.2c4.8,1.8,9.6,4.3,14.8,6.6
	C411.5,264.9,411.5,258.5,411.5,251.9z"/>
<path fill="#FFFFFF" d="M326.5,886c-1.8,4.6-1.8,7.5,2.5,9.3c11.2,4.8,22.3,9.8,34,15c1.8-2.5,3.2-4.3,4.8-6.6
	C353.4,897.6,340.2,891.9,326.5,886z"/>
<path fill="#FFFFFF" d="M471,927c-14.8-2.1-28.7-3.9-42.9-5.9c0,7.1,0,7.5,4.6,8.2c10.5,1.6,21,2.7,31.2,4.3
	C469.2,934.3,470.6,931.8,471,927z"/>
<path fill="#FFFFFF" d="M578.4,921.1c-14.8,2.1-29.2,3.9-44,5.9c1.1,2.5,2.1,4.8,3.2,7.5c12.1-1.6,23.5-3.4,35.1-4.8
	C577.5,928.9,578.9,926.4,578.4,921.1z"/>
<path fill="#FFFFFF" d="M748.1,865c8.4-6.8,16.4-13.2,23.9-19.6c4.6-3.9,4.6-4.1,0.2-10.3c-10,8.2-19.8,16.2-30.3,24.6
	C744,861.6,745.6,863,748.1,865z"/>
<path fill="#FFFFFF" d="M325.6,896.7c-2.1,7.1-2.1,7.3,3,9.6c9.1,4.1,18.2,8,27.6,12.3c1.8-2.1,3.2-4.1,5.2-6.4
	C348.8,906.7,337.2,901.7,325.6,896.7z"/>
<path fill="#FFFFFF" d="M539.2,936.6c0.2,4.8,1.6,7.5,6.8,6.8c9.8-1.4,19.8-2.5,30.3-3.9c0.5-3,0.7-5.2,1.1-8.4
	C563.8,933.2,551.5,934.8,539.2,936.6z"/>
<path fill="#FFFFFF" d="M466.7,936.8c-12.5-1.8-24.9-3.4-38.1-5.2c0.5,3.2,0.9,5.5,1.4,8.2c10.3,1.4,19.8,2.5,29.4,3.6
	C464,943.9,466.7,942.5,466.7,936.8z"/>
<path fill="#FFFFFF" d="M776.8,844.7c-9.1,7.5-17.6,14.6-26.4,21.9c2.5,1.8,4.3,3.2,6.4,4.6c8-6.2,15.5-12.3,23.3-18.2
	C778.8,850,777.9,847.7,776.8,844.7z"/>
<path fill="#FFFFFF" d="M321.9,914.7c9.8,4.1,18.7,7.8,27.8,11.4c1.1-0.9,2.1-1.6,2.7-2.5s1.1-1.8,2.1-3.4
	c-10.3-4.6-20.1-8.7-30.3-13.2C323.5,909.5,322.8,911.5,321.9,914.7z"/>
<path fill="#FFFFFF" d="M229.1,845c-1.1,3.4-2.1,5.7-3,8c8,6.2,15.5,12.1,23.3,18.2c2.3-1.8,3.9-3.2,5.9-4.8
	C246.7,859.6,238.5,852.7,229.1,845z"/>
<path fill="#FFFFFF" d="M656.4,926.6c9.1-3.9,18-7.8,27.4-11.6c-0.7-3-1.1-5.2-1.8-8c-10.3,4.6-19.8,8.9-30.1,13.7
	C653.4,922.7,654.8,924.3,656.4,926.6z"/>
<path fill="#FFFFFF" d="M837.2,142.5c-0.7,9.3-0.7,17.3-0.2,26.9c5.5-5.5,9.6-9.8,13.5-13.7C846.3,151.6,842.5,147.7,837.2,142.5z"
	/>
<path fill="#FFFFFF" d="M574.8,942.3c-10.9,1.6-21.2,3-31.7,4.3c0.5,5.2,3,6.8,7.1,6.2c6.8-0.9,13.7-2.1,20.3-3
	C574.8,949.4,575.9,947.1,574.8,942.3z"/>
<path fill="#FFFFFF" d="M462.8,946.6c-10.7-1.6-21-3-31.5-4.3c-1.4,4.8-0.5,7.3,4.1,7.8c6.8,0.9,13.5,1.8,20.3,2.7
	C460.1,953.5,462.4,951.9,462.8,946.6z"/>
<path fill="#FFFFFF" d="M153.4,156.9c3.9,3.9,8,7.8,13,12.8c0-9.6,0-17.6,0-25.3C162.3,148.2,158.2,152.1,153.4,156.9z"/>
<path fill="#FFFFFF" d="M415,282.7c-1.4,8.9-1.1,8.7,5.5,13.2c2.3,1.6,3.9,4.6,5.5,7.3c1.4,2.3,2.3,4.8,4.1,8.2
	C433.7,296.4,421.1,291.4,415,282.7z"/>
<path fill="#FFFFFF" d="M803.5,162.3c9.8-3.2,18-6.6,26-13.2c-7.8-2.1-12.3,2.1-17.1,4.6C809.2,155.3,804.4,156,803.5,162.3z"/>
<path fill="#FFFFFF" d="M201.3,161.9c-1.6-5.9-6.4-7.3-10-9.3c-3.9-2.1-7.8-5.2-14.8-3.2C185.1,155,192.2,159.6,201.3,161.9z"/>
<path fill="#FFFFFF" d="M180.6,140c5.9,6.8,16.6,12.3,23.5,11.9C196.5,145.7,189.5,141.4,180.6,140z"/>
<path fill="#FFFFFF" d="M204.5,146.8c-5.9-10.5-11.4-13.7-20.3-11.9C191.7,139.5,198.1,143.2,204.5,146.8z"/>
<path fill="#FFFFFF" d="M826.3,140.2c-9.6,1.4-20.3,7.5-22.8,14.1C811.4,149.3,819.4,146.8,826.3,140.2z"/>
<path fill="#FFFFFF" d="M440.5,204.5c0.7-10.9,3.6-14.1,12.5-14.4c0.5,0,1.4,0.5,1.6,0.2c0.7-0.9,1.1-2.1,2.5-4.3
	c-5.9,1.6-10.9,1.6-14.6,3.9C436.8,194.3,436.8,197,440.5,204.5z"/>
<path fill="#FFFFFF" d="M460.3,167.4c4.3-0.7,7.1-1.1,11.4-1.8C466.7,162.3,463.7,161.4,460.3,167.4z"/>
<path fill="#FFFFFF" d="M444.4,218.2c1.1,0.5,1.4,0.7,1.6,0.7s0.7-0.2,0.7-0.2c0.2-2.3,0.5-4.3,0.9-6.6c-0.7,0-1.4-0.2-1.8-0.2
	C445.3,213.9,444.8,216.1,444.4,218.2z"/>
<path fill="#FFFFFF" d="M551.1,200.6c-0.2-2.3,0.9-5.2-4.1-5.5C548.8,197.2,549.9,198.8,551.1,200.6z"/>
<path fill="#FFFFFF" d="M474.5,212c0.2-0.2,0.5-0.2,0.7-0.5c-0.5-1.1-0.9-2.1-1.4-3.2c-0.2,0.2-0.5,0.2-0.7,0.5
	C473.6,210,474,211.1,474.5,212z"/>
<path fill="#FFFFFF" d="M537.8,376c3.4-8.2,7.1-16.6,10.5-24.9c-0.5,8.4-3,16.4-7.8,23.7C540.1,375.5,538.8,375.5,537.8,376
	C537.6,375.7,537.8,376,537.8,376z"/>
<path fill="#FFFFFF" d="M540.8,303c3.2,6.4,2.7,8-3,11.2C539,310.5,539.9,306.7,540.8,303z"/>
<path fill="#FFFFFF" d="M526.9,154.8c1.6,4.1,3.4,8.2,5.5,13.7c-6.2-4.8-6.2-4.8-5.2-13.5C527.1,154.8,526.9,154.8,526.9,154.8z"/>
<path fill="#FFFFFF" d="M510.9,342.9c-1.6,1.4-2.7,2.7-4.1,3.2c-0.7,0.2-2.7-2.1-2.5-2.3c0.7-1.4,1.6-2.7,3-3.4
	C507.8,340.2,509.3,341.8,510.9,342.9z"/>
<path fill="#FFFFFF" d="M508.9,303.7c-0.9,4.1-1.4,6.4-2.1,8.9C503,309.2,505.5,307.1,508.9,303.7z"/>
<path fill="#FFFFFF" d="M474.9,375.3c-1.4-2.3-2.5-4.6-3.9-6.8c0.5-0.2,0.9-0.5,1.4-0.7c1.1,2.3,2.5,4.6,3.6,7.1
	C475.6,374.8,475.1,375.1,474.9,375.3z"/>
<path fill="#FFFFFF" d="M473.1,315.3c-0.7-3.2-1.4-6.4-2.1-9.6c0.5,0,0.9-0.2,1.4-0.2c0.7,3.2,1.6,6.4,2.3,9.6
	C474,315.1,473.6,315.3,473.1,315.3z"/>
<path fill="#FFFFFF" d="M458.3,182.9c-1.4-1.4-3-2.7-4.6-4.1c0.9-0.7,1.4-1.1,1.6-1.1c1.4,1.4,3,2.5,4.3,3.9
	C459.2,181.9,458.7,182.4,458.3,182.9z"/>
<path fill="#FFFFFF" d="M556.8,179.2c-1.1,1.4-2.3,2.5-3.4,3.9c-0.7-0.7-1.4-1.4-2.1-1.8c1.1-1.4,2.3-2.7,3.4-3.9
	C555.4,177.6,556.1,178.3,556.8,179.2z"/>
<path fill="#FFFFFF" d="M537.6,375.7c-0.5,1.8-0.9,3.6-1.6,5.7c-0.5-0.2-1.1-0.5-1.6-0.7c1.1-1.6,2.3-3,3.4-4.6
	C537.8,376,537.6,375.7,537.6,375.7z"/>
<path fill="#FFFFFF" d="M489.1,132.2c8.9-3,17.8-4.3,26.9-0.2c-1.4,0.2-3,0.5-4.3,0.7c-5.9,0.2-11.9,0.7-17.8,0.7
	C492.2,133.2,490.7,132.5,489.1,132.2C489.1,132,489.1,132.2,489.1,132.2z"/>
<path fill="#FFFFFF" d="M499.3,136.3c3.9,0,7.8,0,11.6,0c0,0.5,0,0.9,0,1.4c-3.9,0-7.8,0-11.6,0
	C499.3,137.3,499.3,136.8,499.3,136.3z"/>
<path fill="#FFFFFF" d="M330.8,196.8c-0.2,2.1-0.7,4.1-0.9,6.2c-0.5,0-0.9-0.2-1.6-0.2c0.5-2.1,0.9-4.1,1.1-5.9
	C330.1,196.8,330.4,196.8,330.8,196.8z"/>
<path fill="#FFFFFF" d="M742.1,767.7c-2.5,1.8-4.8,3.6-7.3,5.5C737.3,771.3,739.6,769.5,742.1,767.7z"/>
</svg>
