<?xml version="1.0" encoding="utf-8"?>
<!-- Generator: Adobe Illustrator 18.0.0, SVG Export Plug-In . SVG Version: 6.00 Build 0)  -->
<!DOCTYPE svg PUBLIC "-//W3C//DTD SVG 1.1//EN" "http://www.w3.org/Graphics/SVG/1.1/DTD/svg11.dtd">
<svg version="1.1" xmlns="http://www.w3.org/2000/svg" xmlns:xlink="http://www.w3.org/1999/xlink" x="0px" y="0px"
	 viewBox="0 0 434.6 438.6" enable-background="new 0 0 434.6 438.6" xml:space="preserve">
<g id="Livello_2" display="none">
</g>
<g id="Livello_1">
	<path fill="#FFFFFF" d="M368.8,374.2c-42.8,39.8-92.9,61.3-151,61c-57.9-0.3-107.9-21.8-150.3-61.5c-4.3,4.2-8.5,8.3-12.7,12.5
		C38,402.9,21.3,419.6,4.5,436.3c-0.8,0.8-1.7,1.6-2.6,2.1c-0.4,0.2-1.2-0.1-1.6-0.4c-0.3-0.2-0.3-1-0.1-1.4c0.4-0.7,1.1-1.4,1.7-2
		c19.8-19.7,39.7-39.5,59.5-59.2c1.2-1.2,2.7-2.3,4.4-3.7C24.1,329.7,2.2,279.5,1.3,221C0.4,162.6,20.3,111.7,60.3,68.4
		C41.6,49.6,22.9,31,4.1,12.2C4.7,11.5,5.2,11,6,10.1c18.9,18.8,37.6,37.4,56.4,56.1C105.6,23.2,157,0,217.9-0.1
		c60.9-0.1,112.4,23,155.9,65.8c18.8-18.6,37.7-37.3,56.7-56.1c0.8,0.9,1.3,1.5,2,2.3c-18.7,18.9-37.3,37.7-56.1,56.7
		c39.6,43,59.8,94.1,59,152.7c-0.8,58.6-23,108.7-64.4,150.6c1,1,1.9,2,2.8,3c19.2,19.1,38.4,38.2,57.6,57.3
		c1.2,1.2,2.4,2.2,3.4,3.5c0.5,0.7,0.7,1.6,1,2.4c-2.2,1.1-3-0.4-3.9-1.2c-6.6-6.5-13.2-13.1-19.9-19.7
		c-13.8-13.7-27.5-27.4-41.3-41.1C370.4,375.5,369.7,375,368.8,374.2z M195.3,74.9c1.5,0.1,3,0.3,4.4,0.4c1,0,1.9-0.2,2.9-0.3
		c0-0.2-0.1-0.4-0.1-0.6c-1.5-0.4-2.9-0.8-4.7-1.3c0.7-0.4,1-0.5,1.1-0.6c0.4-1.7-0.9-2.2-2.1-2.3c-1.2-0.1-2.2,0.6-2.2,2
		c0,0.9,0.2,1.7,0.4,2.6c-4.2,2.6-4.5,3.6-1.5,7.1c0.4-1,1.1-2,0.9-2.6C193.9,77.5,194.8,76.3,195.3,74.9z M286.2,396.8
		c-1.7,1.1-3.3,2.2-5.2,3.5c0.8,0.9,1.5,1.6,2.3,2.5c4.2-1.9,8.1-3.8,12.1-5.5c2-0.9,2.1-2.1,1.2-4.1c-1.8,0.8-3.5,1.5-5.2,2.1
		c-1.7,0.6-3.5,1-5.2,1.5c2.9-1.4,5.8-2.9,8.7-4.3c1.9-0.9,2.3-2.1,1.1-4c-6,2.6-11.9,5.1-17.8,7.6c0.9,2.5,2.2,2.9,4.2,1.9
		C283.5,397.5,284.9,397.2,286.2,396.8z M103.6,368.1c3.8,2.7,7.6,5.4,11.9,8.4c0.8-0.8,1.5-1.4,2.3-2.1c-4.5-3.6-8.4-6.7-12.2-9.9
		c-0.9-0.7-1.4-1.9-2-2.9c5,4,9.9,8,15.1,12.1c1-0.9,1.7-1.6,2.5-2.4c-3.5-2.7-6.7-5.2-9.7-7.7c-1-0.8-1.7-2-2.6-3
		c0.9,0.6,1.9,1.1,2.7,1.8c3.5,2.7,7,5.5,10.6,8.4c1.1-0.8,2-1.4,2.9-2c-2.3-2.1-4.4-4-6.5-5.8c1.1,0.6,2.2,1.1,3.2,1.8
		c15.8,10.9,32.4,20.1,51.1,25.3c11.3,3.1,22.6,6.1,34.4,6.4c5.5,0.1,11.1-0.2,16.6,0c16.9,0.7,33-3.7,48.7-9.2
		c19.8-6.8,37.5-17.7,53.3-31.5c0.9-0.8,2-1.3,3.1-2c-0.8,0.9-1.5,2-2.4,2.7c-4.8,3.9-9.6,7.7-14.4,11.5c-0.2,0.2-0.3,0.6-0.6,1
		c1.1,0.6,2,1.1,3.2,1.8c6.1-5,12-9.9,17.9-14.8c-0.5-1.4-0.9-2.2-1.2-3.1c-1,0.4-1.8,0.8-2.6,1.1c0.6-0.8,1.1-1.6,1.8-2.3
		c2.5-2.5,5-4.9,7.7-7.5c-1-1-1.7-1.6-2.3-2.2c-1.1,0.6-2,1-2.9,1.5c0.5-0.9,1.1-1.9,1.6-2.9c-0.8-0.7-1.4-1.3-2.3-2.1
		c-1.3,1.3-2.4,2.5-3.6,3.5c-1.8,1.5-3.6,3-5.4,4.4c0.7-0.9,1.2-1.8,2-2.5c1.9-2,3.8-3.9,5.7-5.9c0.1-0.1,0.1-0.5,0.1-0.9
		c-0.6-0.6-1.3-1.2-1.8-1.7c-4.9,4.5-9.7,8.9-14.5,13.3c-0.8,0.7-1.9,1.1-2.8,1.6c0.6-0.7,1.2-1.5,1.9-2.2c2.5-2.3,5.1-4.5,7.5-6.8
		c2.3-2.2,4.5-4.5,7-6.9c-1.1-1-1.8-1.6-2.6-2.4c-1,0.8-1.9,1.5-2.7,2.2c0.6-1.1,1.1-2.2,1.7-3.3c-0.5-0.6-0.9-1-1.4-1.5
		c-0.3-0.2-0.7-0.3-1.1-0.5c-0.5,0.4-1,0.8-1.4,1.3c-7.3,8-15.6,14.9-24.5,21c-3.7,2.5-7.7,4.5-11.6,6.7c1.5-1.1,2.8-2.3,4.4-3.3
		c11.6-7.1,22-15.5,31.2-25.4c0.4-0.4,0.7-1,1.2-1.7c-0.9-0.7-1.6-1.2-2.3-1.7c-58.2,62.4-148.5,59.1-203-0.5
		c-0.7,0.6-1.5,1.3-2.1,1.8c1.3,2,2.5,3.9,3.7,5.7c-1.5-1.4-3.1-2.9-4.8-4.5c-0.8,0.9-1.5,1.7-2.2,2.5
		c14.6,15.6,31.2,27.8,50.5,36.3c24,10.6,49,14.1,74.9,10.9c17.8-2.2,34.5-8,50.2-16.6c2-1.1,4-2,6-2.9c-0.7,0.6-1.3,1.4-2.1,1.9
		c-31.1,17.8-64.3,24-99.6,17.1c-21.7-4.2-41.3-13.2-59-26.4c-7.4-5.5-14.3-11.6-20.6-18.3c-0.4-0.4-0.9-0.7-1.6-1.2
		c-0.7,0.9-1.3,1.6-2.3,2.8c1.5,1.3,2.9,2.3,4.1,3.6c1.7,1.8,3.2,3.7,4.9,5.5c-3.2-2.8-6.4-5.5-10.1-8.8c-0.5,0.7-1,1.6-1.7,2.5
		c0.7,0.7,1.2,1.4,1.8,2c10.4,10.5,21.8,19.7,34.5,27.3c1.2,0.7,2.3,1.7,3.5,2.6c-1.5-0.6-3-1.1-4.4-1.9
		c-12.8-7.7-24.4-17-34.8-27.6c-0.5-0.5-1.1-1-1.7-1.5c-0.6,0.5-1,0.7-1.3,1.1c-0.4,0.4-0.6,1-1,1.5c8.1,8.1,16.4,15.5,25.6,22
		c26,18.3,54.7,28.5,86.6,29.7c16.7,0.6,33.2-1.5,49.2-6.4c22.1-6.7,41.9-17.7,59.4-32.7c3.7-3.2,7.3-6.5,11-9.7
		c-0.7,1.1-1.3,2.4-2.2,3.3c-3.2,3-6.5,6-9.9,8.8c-34.7,28.5-74.3,41.5-119.2,37c-19.4-1.9-37.6-7.7-54.9-16.6
		c-16.9-8.6-31.8-19.9-45-33.4c-0.4-0.4-0.9-0.8-1.6-1.3c-0.7,0.8-1.4,1.5-2.1,2.3c0.7,0.8,1.3,1.5,1.9,2.1
		c5.4,4.9,10.8,9.8,16.2,14.7c0.9,0.8,1.7,1.8,2.5,2.7c-1.1-0.7-2.4-1.3-3.4-2.1c-3.3-2.7-6.5-5.5-9.9-8.4c-0.5,1.2-0.9,2.2-1.2,3.1
		c1.7,1.8,3.2,3.5,4.7,5.1c-1.7-1.1-3.5-2.1-5.3-3.3c-1.2,1.4-1.4,2.8,0,4.3c-0.6,0-1.2,0.1-1.9,0.1c-0.3,1-0.7,2-1,2.9
		c1.1,1.3,2,2.4,2.9,3.5c-1.2-0.6-2.3-1.1-3.7-1.8c-0.3,1.1-0.7,2.1-1,3.3c4.2,3.3,8.2,6.5,12.3,9.7c1-0.9,1.7-1.6,2.6-2.4
		c-2.9-2.3-5.6-4.3-8.1-6.5C104.9,369.9,104.3,369,103.6,368.1z M213.8,60.7c1.1,0.2,2.3,0.2,3.3,0.6c2.3,0.9,3-0.5,3.8-2.2
		c-2.5-0.1-4.8,0-7-0.4c-3.1-0.7-5.4,0.4-7.6,2.2c-1.3,1-2.5,2.1-3.8,3.2c1,1,1.2,2.1-0.3,3.1c-0.8,0.5-1.4,1.3-2.2,2l0,0
		c0,0.5,0,0.9-0.1,1.2c4.1,0.8,7.1-0.1,8.1-4.5c0.1-0.4,0.5-0.8,0.7-1.2c1.5,0.5,3.1,1,4.6,1.5c2.6,0.8,3.9-0.1,4.5-3
		C216.5,62.4,215.1,61.5,213.8,60.7z M329.8,365.3c1-1.1,1.9-2.3,2.9-3.3c1.9-1.9,1.9-1.9,0.5-4.8c-5.8,4.7-11.5,9.5-17.7,14.6
		c1.6,0.7,2.7,1.2,3.8,1.7c0.9,1,1.7,1.9,2.9,3.2c5-4.1,9.7-7.9,14.5-11.8c-0.6-1.4-1-2.3-1.4-3.2
		C333.2,363.1,331.5,364.2,329.8,365.3z M151.3,312.2c0.7,0.4,1.5,0.8,2.2,1.3c3.9,2.9,7.8,5.8,12,8.9c0.9-1.2,1.6-2.1,2.4-3.2
		c-8.7-5.1-16-11.3-22.7-18.5c-0.8,1.1-1.3,1.9-1.9,2.8c1.3,1.4,2.5,2.7,3.7,3.9c1.5,1.6,3,3.3,4.5,4.9c-0.7-0.4-1.6-0.6-2.2-1.2
		c-2-1.9-3.9-3.9-5.8-5.9c-0.2-0.2-0.6-0.3-1-0.5c-0.4,0.4-0.7,0.8-1,1.2c-0.3,0.5-0.6,1-0.8,1.6c6.5,7.1,13.7,13.2,21.9,18.2
		c0.8-0.9,1.5-1.7,2.2-2.6c-3.8-2.8-7.3-5.3-10.8-8C152.9,314.4,152.2,313.2,151.3,312.2z M272.5,322.2c0.5,1.1,1,2.3,1.7,3.7
		c8.7-5.3,16-11.2,22.4-18.7c-0.7-0.9-1.3-1.7-2.1-2.7c-3.2,3-6,6.1-9.2,8.7c-2.6,2.2-5.6,4-8.5,6c0.9-0.8,1.7-1.7,2.6-2.5
		c4.3-3.9,8.6-7.7,12.8-11.7c1.8-1.7,1.7-1.9-0.7-4.1c-6.7,7-14,13.3-22.8,18.6C270.3,320.6,271.4,321.4,272.5,322.2z M275.5,282.9
		c0-1.7-0.8-2.8-2.5-3.4c-6.4,7.1-13.8,13-22.5,17.8c0.9,1.1,1.7,1.9,2.4,2.7c5.5-3,10.4-6.3,14.9-10.4c2.6-2.3,5.2-4.6,7.8-6.9
		c-1.4,1.7-2.7,3.6-4.3,5.2c-4.9,5-10.6,8.8-16.6,12.3c-0.3,0.2-0.4,0.5-0.8,1c0.8,0.8,1.5,1.6,2.5,2.8c4.6-3.4,9-6.6,13.5-9.9
		c1.1-0.8,2.2-1.6,3.3-2.4c-0.8,1-1.4,2.3-2.4,3c-4.2,3.1-8.5,6.1-12.8,9.2c-0.3,0.2-0.5,0.5-0.8,1c0.8,0.8,1.5,1.6,2,2.2
		c2.1-0.8,3.9-1.6,5.6-2.3c-1.5,1.2-3,2.4-4.6,3.7c0.8,0.9,1.4,1.6,2.3,2.6c2.6-1.7,5-3.4,7.5-5c1.8-1.2,3.7-2.4,5.5-3.6
		c-1.1,1.1-2.1,2.5-3.3,3.4c-2.6,1.9-5.4,3.7-8.1,5.5c-0.3,0.2-0.4,0.5-0.7,0.9c0.7,0.8,1.3,1.5,2.2,2.5c3.1-2.2,6.1-4.2,9-6.3
		c1.8-1.3,3.6-2.6,5.5-3.9c-0.6,0.8-1,1.7-1.7,2.2c-3.9,3-7.8,5.9-11.9,9c0.6,0.8,1.3,1.6,2,2.6c8.7-5.3,16.3-11.5,23.1-19.5
		c-1.2-0.9-2.3-1.7-3.3-2.5c0.2-1.6-0.4-2.8-2.2-3.8c-0.5,0.6-0.9,1.4-1.6,2c-3,2.7-6,5.4-9.1,8c1-1.2,2.1-2.4,3.1-3.5
		c2.4-2.5,4.8-5,7.3-7.6c-1.2-0.9-1.9-1.5-2.7-2.1c-3,3-5.7,6-8.8,8.6c-3,2.6-6.4,4.7-9.6,7c1.1-1.1,2.2-2.3,3.4-3.3
		c5.1-3.9,9.9-8.1,14.5-13.7c-0.8-0.7-1.6-1.4-2.6-2.3c-1.5,1.6-2.5,2.9-3.7,4c-1,0.9-2.1,1.5-3.2,2.3c1.9-2.3,3.8-4.5,5.6-6.8
		C278,283.5,277.2,282.6,275.5,282.9z M159.7,307.2c-0.7-0.4-1.6-0.7-2.2-1.2c-3.2-3-6.4-6-9.7-9.2c-0.6,1-1.2,1.9-1.8,2.8
		c6.5,7.9,14.2,13.8,22.8,19c0.7-1,1.3-1.9,2-2.8c-2-1.4-3.9-2.5-5.5-3.8c-1.9-1.5-3.8-3.2-5.6-4.8c1.1,0.6,2.2,1.1,3.2,1.8
		c2.9,2,5.7,4,8.7,6.1c1-1.1,1.7-1.9,2.3-2.6c-4.9-3.8-9.8-7.3-14.5-11.1c-2.7-2.3-5.8-4.4-7.2-7.9c0.9,0.7,1.8,1.3,2.6,2.1
		c2.9,2.6,5.6,5.4,8.6,7.8c3.6,2.9,7.2,5.8,11.6,7.8c0.7-0.9,1.3-1.6,2-2.6c-1.8-1.1-3.4-2-4.9-3.2c-3-2.3-6.7-4-8.7-7.4
		c1,0.6,2.1,1.3,3.1,2c3.7,2.6,7.4,5.2,11.5,8.1c1-1.5,1.7-2.6,2.3-3.7c1-1.2,2.1-2.3,3.1-3.5c1-1,2-2,3.3-3.3
		c-9.2-4.7-16.5-11-23.1-18.3c-0.9,0.9-1.6,1.5-2.5,2.4c1.2,1.4,2.1,2.7,3.2,3.8c5,5,10.5,9.4,16.5,13.2c1,0.6,1.8,1.6,2.7,2.4
		c-3.8-2.4-7.8-4.5-11.4-7.3c-4.2-3.3-8.1-7.2-12.3-11c-0.6,0.7-1.3,1.4-2.1,2.3c4.7,5.4,9.6,10,15.2,13.9c2.6,1.8,5,3.7,7.5,5.6
		c-0.9-0.4-1.9-0.6-2.7-1.1c-3-2-6.1-4-8.9-6.3c-4.1-3.4-8-7.2-12.1-10.9c-0.6,0.5-1.3,1.2-2.3,2.1c2.1,2.2,4.1,4.3,6,6.4
		c1.1,1.2,2.1,2.4,3.2,3.6c-2.4-2-4.8-4-7.2-6.1c-1-0.8-1.9-1.8-2.7-2.6c-2,1.2-2.2,2.5-1.4,4.2c-1.9-0.6-3,0.2-3.3,2.7
		c2.8,2.8,6,5.8,9,8.8C158.6,305.6,159.2,306.4,159.7,307.2z M296.5,327.6c0.5-0.7,0.9-1.4,1.5-2c2.1-2.1,4.3-4.2,6.5-6.3
		c0.1-0.1,0.1-0.4,0.2-0.7c-0.3-0.4-0.6-0.8-0.9-1.2c-0.3-0.3-0.6-0.7-0.9-0.9c-0.5,0.2-0.7,0.3-0.9,0.5c-6.3,6.2-12.9,12-20.4,16.8
		c-2,1.3-1.5,2.8-0.6,4.8c2-1.4,3.8-2.7,5.7-3.9c1.8-1.1,3.6-2.2,5.4-3.3c-3,2.3-5.9,4.9-9.1,7c-2.3,1.5-3.4,3.3-3.6,6.5
		c1.4-0.8,2.4-1.4,3.4-2c3.6-2.2,7.1-4.5,10.7-6.8c-1.1,1.1-2.2,2.3-3.5,3.3c-5.1,4-11.4,6.5-16.1,11.1c-0.9,0.9-2.4,1.4-3.6,2
		c-13.4,6.4-27.5,9.5-42.2,10.8c-15.1,1.4-29.9-0.6-44.5-4.6c-10.8-3-21.1-7.2-29.4-15.1c1,0.2,2,0.4,3,0.6c0.1-2.9-1.3-4.4-3.3-5.8
		c-4.8-3.2-9.4-6.7-14-10.2c-0.9-0.7-1.6-1.8-2.4-2.7c1.1,0.7,2.3,1.4,3.3,2.2c4.2,3.1,8.5,6.3,12.7,9.3c0.8,0.5,1.7,0.9,2.6,1.3
		c0.8-2.3,0.2-3.6-1.6-5c-5.6-4.2-11.1-8.6-16.5-13c-1.3-1.1-2.5-2.4-4-3.7c-0.8,0.9-1.4,1.6-2.1,2.5c1,1.1,2,2.1,2.9,3.1
		c1,1.1,1.9,2.2,2.8,3.3c-2.2-1.8-4.5-3.5-6.8-5.4c-0.7,0.5-1.5,1-2.4,1.7c0.8,1.3,1.6,2.4,2.3,3.5c-0.9-0.7-1.8-1.3-2.7-2.1
		c-1.5-1.4-3-1.3-5-0.2c1.4,1.5,2.6,2.7,3.8,4c1.6,1.7,3.1,3.5,4.7,5.2c-1.4-1.1-2.8-2-4.1-3.2c-1.9-1.8-3.7-3.8-5.5-5.7
		c-0.8-0.8-1.6-1.2-2.5-0.1c21,25.7,62,48.1,107.6,45c24.9-1.7,47.4-10.1,67.7-24.4c8.3-5.9,15.9-12.5,22.8-20.3
		c-2.2-1.4-2.9,0-3.9,0.9c-4.6,4.3-9.2,8.6-13.8,12.8c-0.5,0.5-1.3,0.6-1.9,1c0.8-0.9,1.6-1.8,2.5-2.6c3.8-3.5,7.6-7,11.3-10.5
		c0.6-0.6,1-1.5,1.6-2.3c-2.4-1-3.9-0.4-5.4,1.1c-3.8,3.6-7.8,7.1-11.8,10.5c-0.8,0.7-1.9,1.1-2.8,1.6c0.6-0.6,1.1-1.3,1.7-1.9
		c4.5-4,9.1-8,13.9-12.2c-1.4-0.9-2.2-1.5-3.2-2.2c-1.7,1.6-3.2,3.1-4.8,4.5C299.5,325.4,298,326.5,296.5,327.6z M178.7,279.9
		c-1.1-0.8-2.3-1.4-3.3-2.4c-1.5-1.5-2.9-3.1-4.4-4.7c-0.2-0.3-0.6-0.3-1.1-0.6c-0.7,0.7-1.3,1.4-2,2.2c0.4,0.6,0.6,1,1,1.4
		c7.4,8,15.6,14.6,26.5,17.9c10.7,3.2,21.3,5.3,32.3,3.4c9.8-1.7,19.5-3.8,27.8-9.9c0.6-0.4,1.2-0.9,1.9-1.3
		c4.2-3.2,8.1-6.8,11.5-11.1c-1-0.8-1.8-1.5-2.2-1.8c-2.5,2.3-4.7,4.4-7,6.4c-19.6,17.5-47.9,20.7-71,7.9c-2.6-1.4-4.7-3.5-7.1-5.3
		c1.1,0.6,2.2,1.1,3.2,1.7c21,14.2,49.4,13.6,69.7-1.6c4.1-3.1,7.9-6.5,11-10.8c-0.9-0.7-1.5-1.2-2.1-1.7
		c-23.6,28.3-66.6,28.2-90.1-0.3c-0.8,0.5-1.6,1-2.4,1.6c1.9,2.2,3.4,3.7,4.8,5.3C176.7,277.4,177.7,278.7,178.7,279.9z M349.6,64.4
		c-2.1,0.9-4.1,1.9-6.2,2.8c-0.1-0.2-0.2-0.3-0.3-0.5c2.2-1.6,4.3-3.1,6.5-4.7c-0.2-0.3-0.4-0.7-0.7-1c-4.2,2-9.1,2.7-11.9,7.3
		c-0.8,1.3-1.6,2.7-2.8,3.4c-4.8,3-9.9,5.3-15.6,6.3c-9.9,1.7-19.2,5.2-26.9,12c-1.2,1-2.8,1.9-4.3,2.2c-9,1.5-17.1,4.9-24.5,10.3
		c-0.2,0.2-0.7,0.1-1.1,0.1c0.6-0.9,1.2-1.7,1.7-2.6c-3.5-1.2-6.9-1-9.9,0c-4.6,1.5-9,3.8-13.4,5.7c-0.1,0.1-0.1,0.4-0.3,1.1
		c1.6,0.5,3.2,1.4,4.8,1.3c7.7-0.4,15.4-0.4,22.9,1.8c0.8,0.2,1.8-0.1,2.7-0.1l0,0c3,3.1,4.1,3.4,7.8,1.5c3.9-2,7.7-4.3,11.7-6.1
		c2.6-1.2,5.4-1.8,8.2-2.6c0.8-0.3,1.8-0.1,2.6-0.5c6.3-2.9,13-4.8,18.8-8.8c5.1-3.5,10.3-6.8,15.4-10.3c2-1.3,4.1-2.3,6.6-2.5
		c1.7-0.1,3.6-0.7,4.9-1.7c3.2-2.3,6.7-4,10.2-5.6c0.9-0.4,2.3-0.7,1.9-2.3c-3.7,0-6.2,1.1-8.2,3.9c0.3-2.5-0.4-4.2-2.9-6
		c-0.6,5.3-3.7,7.9-7.9,9.5c-0.4-1.4-1.9-2.7-0.4-4.8c1.6,1.6,3.7,2.2,5.2,0.5c1.2-1.4,1.5-3.6,2.3-5.7c0.7-0.2,1.7-0.5,2.8-0.8
		C349.4,66.5,349.4,65.4,349.6,64.4c2.8-1.3,5.4-3,8.4-5.1C353.2,58.8,352,59.5,349.6,64.4z M211.4,92.5L211.4,92.5
		c0.1,0.5,0.2,1,0.3,1.4c1.1,4.3,1.6,4.7,6.1,4.8c0.7,0,1.5,0.4,2.2,0.4c1.1-0.1,2.4,0,3.2-0.6c2.6-1.7,4.5-4.1,4.7-7.3
		c0.1-1.6,0.4-2.8,1.5-4c2.2-2.6,1.3-5.7,1.6-8.7c0.2-1.9-0.8-3-1.9-4.3c-1.3-1.4-2-3-1.7-5.1c0.6-3.8,0.2-4.2-3.5-4.3
		c2.9-1.3,4.3-0.8,4.6,2c0.1,1.1-0.1,2.3-0.1,3.4c0.1,1.6,0.6,2.9,2.5,3.1c3.2,0.4,3.2,0.4,3.5,3.8c0.3,2.9,1.5,4,4.4,4.6
		c0.5,0.1,1,0.7,1.4,1l0.1-0.1c-1.3,0.1-2.7,0.1-4,0.2c0,0.2,0,0.5,0,0.7c1.2,0.2,2.3,0.5,3.8,0.8c0.6,2,1.1,4.1,1.7,6.2
		c-0.8,0.2-1.5,0.3-2,0.4c-0.1,1.7,2.1,2.6,1,4.3c-1.6-0.7-1.6-3-3.3-3.5c0.5,2.6,1,4.9,1.5,7.4c3.4-2.1,4.3-5.5,4-9.8
		c1.7,1.3,1.9,2.5,1.6,3.7c-0.5,1.8-1.1,3.7-2.2,5.1c-1.8,2.4-4.1,4.5-6.4,7c0.9,0.2,1.6,0.6,2.1,0.4c2.9-1.2,6-2.1,8.6-3.7
		c5.3-3.5,11-3.9,17-3.1c1.1,0.2,2.6,0,3.5-0.5c5.8-3.6,12-5.7,18.7-6.8c1.9-0.3,3.5-1.1,5-2.3c7.6-6.7,16.7-10.3,26.5-11.9
		c5.8-0.9,10.7-3.6,15.7-6.3c0.7-0.4,1.5-1.1,1.9-1.8c3.1-6,8.8-7.8,14.7-9.4c0.6-0.2,1.3-0.4,1.9-0.6c0-0.1-0.1-0.3-0.1-0.4
		c-40.5,0-80.9,0-121.4,0c3.3,2.7,7.2,4.5,7.4,9c2,0.6,4.3,0.6,5,1.7c0.9,1.3,0.4,3.5,0.5,5.5c1.7,0.2,2.7,1.3,2.7,3.3
		c0,1.4-0.4,1.9-2.1,2.8c0-0.4,0-0.8,0.1-1.1c0.8-3.1,0.8-3-2.4-3.6c-2.5-0.4-3.4-1.6-4-5c1,0,1.9,0.1,3.6,0.2
		c-1.2,0.7-1.8,1-2.6,1.4c0.9,0.6,1.7,1.2,2.4,1.6c0.4-0.3,0.6-0.4,0.7-0.6c0.9-1.5,1.4-3.3-0.2-4.4c-1.8-1.2-2.9,0.5-3.7,1.8
		c-0.4-1.1-0.9-2.2-1.3-3.3c-0.5-1.4-0.7-3.2-1.7-4c-2.1-1.8-4.4-3.4-6.9-4.5c-1.4-0.6-4.1-0.7-4.9,0.2c-1.5,1.7-4.3,3-3.5,6.5
		c2.3,0.2,4.7,0.5,7.2,0.8c0,0.3,0,0.6-0.1,0.8c-5.4,0-10.8,0-16.2,0c-0.1,0.1-0.2,0.2-0.2,0.3c-0.4,2.7,0.3,5.8-3,7.3
		c-0.3,0.2-0.5,0.8-0.7,1.3c-0.7,3.3-1.4,6.6,0.8,9.8c0.6,0.9,0.9,2.1,1.3,3.1c0.1,0.2,0.2,0.3,0.5,0.7c0.4-1.1,0.6-1.9,0.9-2.8
		c0.7,0.9,0.7,1.6,0.7,2.4c-0.1,1.1-0.3,2.2-0.3,3.3c0,0.2,0.7,0.4,1.1,0.6C211.2,93.2,211.3,92.8,211.4,92.5z M228,102.5L228,102.5
		c0-1.1-0.1-2.3-0.2-4.2c-3.6,4.6-7.8,5.9-13.1,4.3c1.2,3.8,2.3,7.1,3.3,10.4c-0.3,0.1-0.5,0.2-0.8,0.3c-1-2.8-2.1-5.6-3-8.4
		c-1-3.1-2.9-5.3-6.5-6.9c0.6,3.8,1.1,7.1,1.7,10.4c-0.2,0.1-0.4,0.1-0.6,0.2c-0.5-1.5-0.9-2.9-1.4-4.7c-0.9,1.2-1.7,2.2-2.9,3.7
		c0.3-1.5,0.4-2.1,0.6-3c-3.2,1.6-6.1,3-9.8,4.8c2.2,0.4,3.5,0.8,4.8,1c3.6,0.4,7.3,0.6,10.9,0.9c1.3,0.1,2.8,0,3.1,1.6
		c-1.9-0.2-3.7-0.2-5.5-0.5c-4.1-0.5-8.5-0.4-12.2-1.9c-5.6-2.2-10.8-0.9-16.1-0.7c-0.2,3.2-0.4,6.1-0.5,9c0,0.6-0.2,1.4,0.1,1.8
		c2.1,2.8,4,5.9,7.9,8c-1.5-3.3-4-5.2-4.5-9.1c0.9,1.4,1.4,2.1,1.9,2.9c2.9,4.1,5.7,8.3,8.6,12.4c2,2.9,4.6,4.7,8.2,4.5
		c4.4-0.3,8.8-0.7,13.1-1.2c1-0.1,1.9-0.5,2.8-0.8c0.1,0.3,0.1,0.6,0.2,0.9c-4.5,2.2-9.4,3.2-14.3,3.8c-4.6,0.6-8.5-1.4-12.3-4.1
		c0.5,1.5,1,3,1.4,4.5c-0.2,0.1-0.5,0.3-0.7,0.4c-1.2-0.7-2.4-1.4-3.6-2.1c1.7,9.3,3.9,20.5,7.2,26.5c-0.7,3.2-1.3,6.2-2.1,9.3
		c-1.4,5.5-0.3,8,4.9,10.6c0.1,0.1,0.1,0.4,0.1,1c-1.8-0.8-3.5-1.5-5.3-2.2c-0.5,1.7-1,3.3-1.5,4.8c-0.7,2-0.3,3.4,1.3,5
		c7.8,7.5,15.4,15.2,23.1,22.8c0.6,0.6,1.3,1,2.2,1.7c9.1-9.4,18-18.6,27.3-28.1c-0.5-1.8-1.1-4.2-1.7-6.6c-1.4,0.5-2.4,0.9-3.3,1.2
		c4.7-2.7,4.7-6.6,3.3-11c-0.3-0.8-0.5-1.7-0.6-2.6c-0.6-3.2-1.9-6.5,0.5-9.6c0.4-0.5,0.4-1.2,0.6-1.8c0.9-4.2,1.9-8.3,2.8-12.5
		c1.6-7.3,3.2-14.5,8.6-20.2c0.8-0.8,0.7-2.4,1-3.6c-4.2,2.5-7.5,5.4-9.5,9.7c-2,4.5-5.6,6.5-10.6,6.5c-4.4,0-8.4-1.3-12.5-2.5
		c-1.3-0.4-2.5-1.1-2.4-2.8c1.5,0.7,2.7,1.7,4.1,1.9c4,0.5,8,0.8,12,1c3.2,0.2,5.8-1.3,7.1-4.1c1.9-3.9,4.9-6.5,8.1-9.1
		c1-0.8,2-1.6,2.7-2.6c0.6-0.7,1.2-1.7,1.2-2.6c0.1-3.6,0.1-7.2,0.1-11.1c-6.1-0.2-11.7-1-17.5,1.1c-5.1,1.9-10.5,2-15.9,1.4
		c5.5-1.6,11.6-0.4,17.4-3.4c-2.7-1.2-4.8-2.2-7-3.2C232.2,104.6,230.1,103.5,228,102.5z M337.6,338.4c63.7-62.4,67-170.8,3.2-235.5
		c-40.1,39.7-80.1,79.4-120.4,119.4C259.6,261.2,298.6,299.8,337.6,338.4z M98.8,338.2c38.9-38.6,77.9-77.2,116.9-115.9
		c-40.3-39.9-80.4-79.6-120.5-119.3C30.6,171,37.6,277.4,98.8,338.2z M340.1,341.1c9.6,9.6,19.1,19,28.5,28.3
		c89.4-87.3,78.9-224.8,4.8-298.8c-10,9.9-19.9,19.8-30,29.8c31.6,34.4,47.7,74.6,47,120.9C389.5,267.5,372.2,307.2,340.1,341.1z
		 M62.9,70.8c-81.1,84-76.2,221.2,5,297.9c9.3-9.4,18.6-18.8,28-28.3c-31.2-33.3-48.4-72.8-49.3-118.9C45.8,175.1,61.6,135,93,100.7
		C82.9,90.6,72.9,80.7,62.9,70.8z M358.9,56.2c-27.7-24-59-40.5-94.6-48.2C221.2-1.3,179.1,2.2,138,18.7
		c-23.4,9.4-52.9,29.2-59.6,37.9C84.2,57.4,354.8,57.1,358.9,56.2z M70.3,371.2c80.2,79.6,213.3,82,296,0.3
		c-8.2-8.2-16.5-16.4-24.6-24.5c-2.5,2.2-4.6,4.1-6.7,6c1.6,3.9,3.1,7.4,4.5,10.9c1.4,3.6,2.8,7.2,4.3,11c-4.2,3.3-8.2,6.3-12.2,9.5
		c-1.5,1.2-2.7,1-4-0.2c-1.5-1.3-3.2-2.5-4.8-3.7c-4-3-8-6-12.2-9.1c-4.2,2.6-8.3,5-12.3,7.5c0.9,8,1.9,15.7,2.8,23.9
		c-4.5,1.9-8.7,3.8-13,5.6c-3.4,1.4-3.4,1.3-5.7-1.5c-3.6-4.5-7.3-9-10.9-13.6c-1.1-1.3-2.1-2-3.9-1.5c-3.7,1.1-7.5,2.2-11.4,3.3
		c-1.2,7.9-2.3,15.7-3.5,23.7c-4.6,0.6-8.8,1.3-13.1,1.8c-4.4,0.5-4.4,0.5-6.2-3.5c-2.6-5.9-5.2-11.7-7.7-17.5c-5,0-9.7,0-14.5,0
		c-2.8,6.4-5.5,12.6-8.1,18.9c-0.8,1.9-1.8,2.6-3.7,2.4c-4.1-0.5-8.2-1.1-12.4-1.5c-2.3-0.3-3.1-1.5-3.3-3.7
		c-0.6-5.9-1.6-11.7-2.3-17.6c-0.2-2.1-1.1-3.1-3.2-3.5c-2.7-0.6-5.4-1.4-8-2.3c-2.2-0.8-3.7-0.2-5.1,1.7
		c-3.4,4.6-7.1,9.1-10.7,13.7c-0.9,1.1-1.7,2.3-3.4,1.7c-5.1-1.9-10.1-3.8-14.8-6.6c0.8-8,1.7-15.7,2.5-23.6
		c-4.3-2.6-8.3-5-12.4-7.4c-6.5,4.9-12.7,9.6-19.1,14.5c-4.7-3.8-9.2-7.4-13.8-11.1c1.9-5.1,3.8-9.8,5.5-14.5
		c0.9-2.5,2.7-5.3,2.1-7.4c-0.6-2.3-3.5-4.1-5.4-6.1c-0.2-0.2-0.5-0.2-0.7-0.3c-0.2-0.2-0.4-0.4-0.6-0.6
		C86.5,354.4,78.4,362.7,70.3,371.2z M221.3,360.8c4.5-0.5,11.8-1.2,19-2.4c10.7-1.7,21.1-4.9,30.8-9.8c7-3.5,8.8-11.5,3.9-17.5
		c-8.9-10.8-17.9-21.5-26.8-32.2c-1.9-2.3-3.9-3-6.9-1.9c-14.9,5.2-29.9,5.2-44.8,0.2c-4.1-1.4-5.1-1-7.8,2.3
		c-8.5,10.3-17.1,20.5-25.6,30.8c-5.7,6.8-3.8,15.3,4.3,19C183.5,356.7,200.6,360.2,221.3,360.8z M206.6,59.1
		c-14.8-1.6-118.3-1.2-120.8-0.5c3,1.2,6.5,2.7,9.9,3.9c2.8,1,4.6,2.9,5.9,5.5c0.6,1.2,1.8,2.4,3,3.1c5.2,2.9,10.6,5,16.6,6.1
		c9,1.7,17.5,5,24.5,11.1c2,1.7,4.1,2.7,6.7,3.1c5.4,0.9,10.6,2.2,15.3,5.1c2.5,1.5,4.9,2.1,7.8,1.8c3.9-0.4,7.8-0.3,11.5,1.4
		c3.3,1.6,6.7,3.1,10.1,4.6c-0.3-1.7-1.3-2.7-2-3.9c-1.5-2.6-4.4-4.6-3.5-7.5c-1.2-2.1-2.8-3.8-2.9-5.5c-0.1-1.7,1.4-3.5,2.4-5.5
		c-2.1-4.2-2-4.6,2.2-8.1c-0.1-4.4,0-4.5,3.9-5.6c1.7-2.2,2.8-4.1,4.4-5.6C203.1,61.3,204.9,60.3,206.6,59.1z M190.1,192.7
		c0.8-3.6,2.1-6.5,1.9-9.4c-0.2-3,0-5.7,0.8-8.5c1.1-4.2,1.7-8.3-0.6-12.5c-0.9-1.6-1.1-3.6-1.7-5.4c-2.4-7.4-2.5-15.4-6.5-22.4
		c-2.3-4-4.7-5.6-9.3-4.8c-4.5,0.8-8.9,1-13.5,0.2c-5.3-0.9-10.7-1-16.1-1.4c-0.7-0.1-1.5,0.1-2.2,0.3c-4.2,1.1-8.4,1.4-12.7,1.1
		c-0.8,0-1.6,0.1-2.9,0.2C148.2,151.2,168.8,171.6,190.1,192.7z M308.3,130.8c-0.1-0.3-0.2-0.6-0.3-0.8c-7.3,1.5-14.2-2.4-21.6-0.8
		c-2.7,0.6-5.6-0.3-8.3,0.3c-5.2,1.3-10.2,1-15.3,0c-3.7-0.7-6.2-0.1-9,4.5c-2.6,4.2-4,8.9-5,13.8c-1.2,6.3-2.1,12.7-4.7,18.6
		c-0.3,0.7-0.3,1.7-0.1,2.5c0.4,2.2,1,4.4,1.3,6.7c0.3,2.2,0.9,4.6,0.5,6.7c-0.5,3,0.5,5.6,1.4,9.1
		C268,170.9,288.2,150.9,308.3,130.8z M245.5,251.6c-7.1,9.6-16.1,14.3-27.5,14.2c-11.3-0.2-20.2-5.2-26.9-14.3
		c-5.3,5.4-10.2,10.5-15.2,15.6c22,28.5,64.8,27,84.7,0.3C255.7,262.2,250.7,257,245.5,251.6z M78.4,71c1.6,2.5,3.6,3.4,5.6,3.8
		c3.2,0.6,4.9,3.4,7.7,4.5c2.9,1.1,6.2,1.5,8.8,3c5.5,3.1,10.8,6.5,16,10c7.5,5,15.8,8.2,24.4,10.5c3.1,0.8,6.2,2.2,9.1,3.5
		c3.5,1.7,6.9,3.7,10.3,5.5c2.7,1.4,3.1,1.3,5.9-0.8c-2.7-1.4-5.4-2.7-8-4.2c-2.5-1.5-5-3.1-7.4-4.7c0.1-0.2,0.3-0.4,0.4-0.6
		c0.5,0.3,1,0.5,1.5,0.8c3.9,2.2,7.9,4.4,11.8,6.8c2.4,1.5,4.7,1.8,7.5,1c6.4-2,13.1-2.3,19.8-1.7c2.2,0.2,3.8-0.2,5.5-2.2
		c-1.8-0.9-3.3-1.7-4.9-2.4c-1.7-0.8-3.5-1.3-5.1-2.2c-4.2-2.1-8.6-1.9-13.4-1.6c1.7,2.9,5.2,4,5.4,7.7c-1.6-1.8-2.9-3.6-4.5-4.9
		c-5.1-4-10.7-7.3-17-8.7c-6.2-1.3-11.8-3.2-16.9-7.4c-5.5-4.5-12.4-6.7-19.4-8c-6.7-1.2-12.9-3.4-18.7-6.9
		c-0.7-0.4-1.5-1.1-1.8-1.8c-1.8-5.2-6.7-6.5-11-8.4c-0.5-0.2-1.3,0-1.9,0C88,61.6,88,61.8,87.9,62c2.2,1.6,4.3,3.2,6.5,4.8
		c-0.1,0.2-0.3,0.5-0.4,0.7c-1.5-0.7-2.9-1.5-4.6-2.3c-0.5,0.9-1,1.7-1.6,2.7c2.8,0.5,4.2,1.9,4.6,4.5c0.3,1.8,1.8,2.7,3.5,3
		c0.8,0.2,1.6,0.2,3.1,0.3c-0.9,0.8-1.3,1.5-1.7,1.5c-4.2,0-6-3.4-8.1-7.3c-0.8,2.2-1.3,3.5-1.9,5C85.1,72,82.3,71,78.4,71z
		 M78,59.2c0-0.2-0.1-0.4-0.1-0.6c-0.8-0.1-1.8-0.5-2.3-0.1c-1.7,1.1-3.3,2.2-3.2,4.7c0.2,2.8,0.2,5.6,0,8.3
		c-0.3,3.3,0.9,5.6,3.3,7.9c10.4,10.1,20.7,20.2,30.8,30.6c2.3,2.4,4.7,2.7,7.7,2.6c6.8-0.3,13.6-0.3,20.3-0.1
		c2.4,0.1,4.8,1.3,7.2,2c0.9,0.3,2,0.7,2.8,0.5c4.6-1.3,9.2-2.3,14.1-2.3c-5-2.9-10.1-5.6-15.3-7.8c-2.2-1-5-0.8-7.3-1.7
		c-7.4-3.1-15.2-5.4-21.6-10.5c-1.6-1.2-3.2-2.4-4.9-3.5c-4.6-3.1-9-6.4-14.8-7.1c-1.7-0.2-3.3-1.3-4.8-2.1c-2.5-1.3-5-2.7-7.6-4.1
		c-0.8-0.4-1.6-0.7-2.3-1.3c-0.9-0.7-2.1-1.3-2.4-2.3c-0.3-0.9,0.3-2.2,0.6-3.3c-0.8-0.6-1.8-1-2.4-1.8c-0.5-0.6-0.9-2.1-0.7-2.2
		c2.1-1.2,0-2.7,0.3-4.1C76.2,60.3,77.1,59.7,78,59.2z M242.6,250.3c-8.4-8.7-16.4-17.1-24.7-25.7c-8.3,8.2-16.4,16.3-24.4,24.3
		C204.5,267.5,232.9,266.9,242.6,250.3z M279.1,112.4c3.7,0.4,6.6,0.3,9.2,1.2c3.9,1.2,7.4,0.9,11.3-0.1c7.5-2,15.2-2.1,22.9-1
		c2.7,0.4,4.9,0.1,6.7-2.3c0.9-1.2,2.1-2.2,3.2-3.2c9.8-9.8,19.7-19.5,29.5-29.3c0.9-0.9,2-2.2,2-3.3c0.2-4,0.2-8.1,0-12.1
		c-0.1-2.3-1.8-3.8-4.2-3.8c-0.2,0-0.5,0.4-0.8,0.8c1,0.5,1.8,0.9,2.8,1.3c-0.4,1-0.7,1.8-1,2.6c3.1,2.8,2.5,2.8-1.4,6
		c0.4,3.6-0.1,4.5-3.4,6.2c-3,1.6-5.9,3.3-8.9,4.8c-2.1,1-4.5,1.6-6.7,2.4c-1.2,0.4-2.5,0.6-3.5,1.2c-4.2,2.6-8.3,5.2-12.4,8
		c-8.4,5.9-17.4,10.6-27.6,12.4c-1.1,0.2-2.2,0.5-3.2,1C288.9,107.3,284.4,109.7,279.1,112.4z M111.9,113.9
		c-0.1,0.3-0.2,0.5-0.3,0.8c2.3,2.3,4.6,4.6,6.8,6.9c7,7.2,7.1,7.2,17.1,6.9c1.7-0.1,3.5-0.4,5.2-0.7c2-0.3,4-0.7,6-0.7
		c3.3,0,6.5,0.3,9.8,0.6c1.2,0.1,2.6,0.1,3.7,0.5c6.1,2,12.1,0.6,18.1-0.7c0.5-6.2-0.2-7.4-6-9.5c-1.9-0.7-3.8-1.2-5.7-1.9
		c-6.9-2.5-13.8-2.6-20.7-0.1c-1.9,0.7-3.4,0.5-5-0.4c-3.1-1.6-6.4-2.2-9.8-2.2c-3.9,0-7.8-0.1-11.7-0.1
		C116.9,113.4,114.4,113.7,111.9,113.9z M258.2,127.6c3.7,0.5,7.2,1.1,10.7,1.5c1.5,0.2,3.1,0.5,4.5,0c4.7-1.6,9.4-1.2,14.2-1.3
		c2.9-0.1,5.7-0.1,8.6,0.1c3.8,0.2,7.5,0.5,11.2,0.7c2.3,0.2,4.1-0.7,5.7-2.4c3.2-3.3,6.6-6.6,9.8-9.9c0.6-0.6,1-1.3,1.8-2.3
		c-7.3-0.9-14-1-20.8-0.2c-2.8,0.4-5.5,1.6-8.3,2.2c-1.1,0.2-2.5,0.2-3.6-0.2c-10.3-3.6-19.8-0.9-29.2,3.4
		C259.3,120.8,257.3,123.5,258.2,127.6z M190.2,293.5c-9.2-4.5-16.8-10.5-23.5-18.5c-0.9,0.9-1.7,1.7-2.6,2.6
		c6.8,8.1,14.4,14.2,23.3,18.7C188.3,295.4,189,294.7,190.2,293.5z M158.5,330.7c-7.5-6.1-14.6-12-21.8-18c-0.5,0.7-1.1,1.6-1.7,2.6
		c6.7,7.1,14.1,13,22.2,18.1c0.5-0.8,0.8-1.4,1-1.9C158.4,331.2,158.5,330.8,158.5,330.7z M249.8,296.3c8.7-4.8,16.2-10.5,22.5-18.2
		c-1-0.8-1.8-1.5-2.7-2.2c-6.3,7.5-13.8,13.1-22.6,17.8C248.1,294.7,248.8,295.4,249.8,296.3z M297.5,308.9
		c-7.4,6.1-14.6,12.1-22.1,18.4c0.6,0.7,1.3,1.5,2,2.3c8.3-5.6,15.7-11.2,21.9-18.4C298.5,310.2,297.9,309.4,297.5,308.9z
		 M300.3,312.7c-7.3,6.1-14.5,12-21.8,18.1c0.5,0.8,1.1,1.7,1.6,2.7c8.1-5.4,15.6-11.3,22-18.5C301.3,314,300.7,313.2,300.3,312.7z
		 M137.8,311.1c4.5,5.7,16.2,15.2,21.9,17.9c0.6-0.7,1.2-1.4,1.7-1.9C154,321,146.8,315,139.4,309
		C139.1,309.5,138.5,310.3,137.8,311.1z M142.3,379c-1,2-0.7,3.3,1.2,4.2c6.4,2.9,12.8,5.8,19.4,8.8c0.9-1.1,1.5-2,2.2-2.8
		C157.4,385.7,149.9,382.4,142.3,379z M294.7,379.1c-7.5,3.3-15,6.6-22.5,9.9c0.8,2.1,2,2.7,3.9,1.9c5.6-2.5,11.3-4.9,16.9-7.5
		C295.5,382.3,295.4,382.2,294.7,379.1z M253.1,394.6c-8.2,1.1-16.2,2.3-24.2,3.4c0.1,2.4,1.2,3.1,3.2,2.9
		c6.3-0.9,12.6-1.8,18.9-2.6C253,397.9,253.2,396.5,253.1,394.6z M208.6,398c-8.2-1.2-16.2-2.3-24.2-3.4c-0.4,2,0,3.1,1.9,3.5
		c6.9,1.4,13.8,2.6,21,2.7C207.7,399.9,208.1,399.1,208.6,398z M258.9,119.5c4.8-1.9,9.5-3.8,14.6-5.9c-5-1.7-9.5-3.6-14.6-3.8
		C258.9,113.2,258.9,116.4,258.9,119.5z M141,387.2c6.5,2.8,12.8,5.6,19.2,8.3c0.8-1.2,1.3-2,1.9-2.9c-6.9-3-13.5-6-20.3-9
		C141.6,384.7,141.4,385.7,141,387.2z M295.7,383.6c-7.1,3.1-13.9,6.1-21.4,9.4c1.1,1.2,1.9,1.9,2.5,2.6c6.9-3,13.1-5.8,19.1-8.4
		C295.9,385.8,295.8,385,295.7,383.6z M252.3,399.4c-7.3,1-14.4,1.9-21.6,2.9c0.9,3.1,0.9,3.2,3.3,2.9c5.3-0.7,10.7-1.5,16-2.2
		C252.2,402.7,252.7,401.5,252.3,399.4z M185,399.3c0.4,3.2,0.4,3.4,2.4,3.7c5.2,0.8,10.4,1.5,15.6,2.3c2.2,0.3,3.3-0.5,3.5-3
		C199.3,401.3,192.2,400.3,185,399.3z M178.5,110.5c-3.7-0.2-9.9,1.4-13.4,3.6c2.5,0.8,4.7,1.5,6.9,2.3c2.1,0.8,4.2,1.9,6.5,2.9
		C178.5,116.2,178.5,113.4,178.5,110.5z M141.2,388.6c-0.8,2-0.8,3.3,1.1,4.1c4.9,2.1,9.8,4.3,14.9,6.6c0.8-1.1,1.4-1.9,2.1-2.9
		C153,393.7,147.2,391.2,141.2,388.6z M204.6,406.6c-6.5-0.9-12.6-1.7-18.8-2.6c0,3.1,0,3.3,2,3.6c4.6,0.7,9.2,1.2,13.7,1.9
		C203.8,409.8,204.4,408.7,204.6,406.6z M251.7,404c-6.5,0.9-12.8,1.7-19.3,2.6c0.5,1.1,0.9,2.1,1.4,3.3c5.3-0.7,10.3-1.5,15.4-2.1
		C251.3,407.4,251.9,406.3,251.7,404z M326.1,379.4c3.7-3,7.2-5.8,10.5-8.6c2-1.7,2-1.8,0.1-4.5c-4.4,3.6-8.7,7.1-13.3,10.8
		C324.3,377.9,325,378.5,326.1,379.4z M140.8,393.3c-0.9,3.1-0.9,3.2,1.3,4.2c4,1.8,8,3.5,12.1,5.4c0.8-0.9,1.4-1.8,2.3-2.8
		C151,397.7,145.9,395.5,140.8,393.3z M234.5,410.8c0.1,2.1,0.7,3.3,3,3c4.3-0.6,8.7-1.1,13.3-1.7c0.2-1.3,0.3-2.3,0.5-3.7
		C245.3,409.3,239.9,410,234.5,410.8z M123.4,319.2c3.2,0.3,5.6-1.1,7.5-3.8c2.3-3.2,4.5-6.3,6.7-9.5c0.3-0.5,0.5-1.1,0.7-1.7
		c-0.2-0.1-0.3-0.2-0.5-0.3C133.1,309,128.3,314.1,123.4,319.2z M202.7,410.9c-5.5-0.8-10.9-1.5-16.7-2.3c0.2,1.4,0.4,2.4,0.6,3.6
		c4.5,0.6,8.7,1.1,12.9,1.6C201.5,414,202.7,413.4,202.7,410.9z M338.7,370.5c-4,3.3-7.7,6.4-11.6,9.6c1.1,0.8,1.9,1.4,2.8,2
		c3.5-2.7,6.8-5.4,10.2-8C339.6,372.8,339.2,371.8,338.7,370.5z M139.2,401.2c4.3,1.8,8.2,3.4,12.2,5c0.5-0.4,0.9-0.7,1.2-1.1
		c0.3-0.4,0.5-0.8,0.9-1.5c-4.5-2-8.8-3.8-13.3-5.8C139.9,398.9,139.6,399.8,139.2,401.2z M98.5,370.6c-0.5,1.5-0.9,2.5-1.3,3.5
		c3.5,2.7,6.8,5.3,10.2,8c1-0.8,1.7-1.4,2.6-2.1C106.2,377,102.6,374,98.5,370.6z M285.9,406.4c4-1.7,7.9-3.4,12-5.1
		c-0.3-1.3-0.5-2.3-0.8-3.5c-4.5,2-8.7,3.9-13.2,6C284.6,404.7,285.2,405.4,285.9,406.4z M365.2,62.5c-0.3,4.1-0.3,7.6-0.1,11.8
		c2.4-2.4,4.2-4.3,5.9-6C369.2,66.5,367.5,64.8,365.2,62.5z M250.1,413.3c-4.8,0.7-9.3,1.3-13.9,1.9c0.2,2.3,1.3,3,3.1,2.7
		c3-0.4,6-0.9,8.9-1.3C250.1,416.4,250.6,415.4,250.1,413.3z M201,415.2c-4.7-0.7-9.2-1.3-13.8-1.9c-0.6,2.1-0.2,3.2,1.8,3.4
		c3,0.4,5.9,0.8,8.9,1.2C199.8,418.2,200.8,417.5,201,415.2z M313.6,319.1c-4.8-4.7-9.2-9-13.7-13.3c-0.2,0.2-0.4,0.4-0.6,0.5
		c2.5,3.4,5,6.8,7.6,10.2C308.5,318.2,310.3,319.4,313.6,319.1z M65.3,68.8c1.7,1.7,3.5,3.4,5.7,5.6c0-4.2,0-7.7,0-11.1
		C69.2,65,67.4,66.7,65.3,68.8z M180,124c-0.6,3.9-0.5,3.8,2.4,5.8c1,0.7,1.7,2,2.4,3.2c0.6,1,1,2.1,1.8,3.6
		C188.2,130,182.7,127.8,180,124z M350.4,71.2c4.3-1.4,7.9-2.9,11.4-5.8c-3.4-0.9-5.4,0.9-7.5,2C352.9,68.1,350.8,68.4,350.4,71.2z
		 M86.3,71c-0.7-2.6-2.8-3.2-4.4-4.1c-1.7-0.9-3.4-2.3-6.5-1.4C79.2,68,82.3,70,86.3,71z M77.2,61.4c2.6,3,7.3,5.4,10.3,5.2
		C84.2,63.9,81.1,62,77.2,61.4z M87.7,64.4c-2.6-4.6-5-6-8.9-5.2C82.1,61.2,84.9,62.8,87.7,64.4z M360.4,61.5
		c-4.2,0.6-8.9,3.3-10,6.2C353.9,65.5,357.4,64.4,360.4,61.5z M191.2,89.7c0.3-4.8,1.6-6.2,5.5-6.3c0.2,0,0.6,0.2,0.7,0.1
		c0.3-0.4,0.5-0.9,1.1-1.9c-2.6,0.7-4.8,0.7-6.4,1.7C189.6,85.2,189.6,86.4,191.2,89.7z M199.9,73.4c1.9-0.3,3.1-0.5,5-0.8
		C202.7,71.2,201.4,70.8,199.9,73.4z M192.9,95.7c0.5,0.2,0.6,0.3,0.7,0.3c0.1,0,0.3-0.1,0.3-0.1c0.1-1,0.2-1.9,0.4-2.9
		c-0.3,0-0.6-0.1-0.8-0.1C193.3,93.8,193.1,94.8,192.9,95.7z M239.7,88c-0.1-1,0.4-2.3-1.8-2.4C238.7,86.5,239.2,87.2,239.7,88z
		 M206.1,93c0.1-0.1,0.2-0.1,0.3-0.2c-0.2-0.5-0.4-0.9-0.6-1.4c-0.1,0.1-0.2,0.1-0.3,0.2C205.7,92.1,205.9,92.6,206.1,93z"/>
	<path fill="#FFFFFF" d="M233.9,164.9c1.5-3.6,3.1-7.3,4.6-10.9c-0.2,3.7-1.3,7.2-3.4,10.4C234.9,164.7,234.3,164.7,233.9,164.9
		C233.8,164.8,233.9,164.9,233.9,164.9z"/>
	<path fill="#FFFFFF" d="M223.7,70.9c-0.1,3-0.9,5.7-2.4,8.1c-0.3-0.1-0.5-0.2-0.8-0.3C221.5,76.1,222.6,73.5,223.7,70.9z"/>
	<path fill="#FFFFFF" d="M235.2,132.9c1.4,2.8,1.2,3.5-1.3,4.9C234.4,136.2,234.8,134.5,235.2,132.9z"/>
	<path fill="#FFFFFF" d="M229.1,67.9c0.7,1.8,1.5,3.6,2.4,6c-2.7-2.1-2.7-2.1-2.3-5.9C229.2,67.9,229.1,67.9,229.1,67.9z"/>
	<path fill="#FFFFFF" d="M254,87.9c-1,1.3-2.1,2.6-3.1,3.9c-0.2-0.1-0.4-0.3-0.5-0.4c1-1.3,1.9-2.6,2.9-3.9
		C253.3,87.5,253.6,87.7,254,87.9z"/>
	<path fill="#FFFFFF" d="M222.1,150.4c-0.7,0.6-1.2,1.2-1.8,1.4c-0.3,0.1-1.2-0.9-1.1-1c0.3-0.6,0.7-1.2,1.3-1.5
		C220.7,149.2,221.4,149.9,222.1,150.4z"/>
	<path fill="#FFFFFF" d="M221.2,133.2c-0.4,1.8-0.6,2.8-0.9,3.9C218.6,135.6,219.7,134.7,221.2,133.2z"/>
	<path fill="#FFFFFF" d="M206.3,164.6c-0.6-1-1.1-2-1.7-3c0.2-0.1,0.4-0.2,0.6-0.3c0.5,1,1.1,2,1.6,3.1
		C206.6,164.4,206.4,164.5,206.3,164.6z"/>
	<path fill="#FFFFFF" d="M205.5,138.3c-0.3-1.4-0.6-2.8-0.9-4.2c0.2,0,0.4-0.1,0.6-0.1c0.3,1.4,0.7,2.8,1,4.2
		C205.9,138.2,205.7,138.3,205.5,138.3z"/>
	<path fill="#FFFFFF" d="M199,80.2c-0.6-0.6-1.3-1.2-2-1.8c0.4-0.3,0.6-0.5,0.7-0.5c0.6,0.6,1.3,1.1,1.9,1.7
		C199.4,79.8,199.2,80,199,80.2z"/>
	<path fill="#FFFFFF" d="M242.2,78.6c-0.5,0.6-1,1.1-1.5,1.7c-0.3-0.3-0.6-0.6-0.9-0.8c0.5-0.6,1-1.2,1.5-1.7
		C241.6,77.9,241.9,78.2,242.2,78.6z"/>
	<path fill="#FFFFFF" d="M233.8,164.8c-0.2,0.8-0.4,1.6-0.7,2.5c-0.2-0.1-0.5-0.2-0.7-0.3c0.5-0.7,1-1.3,1.5-2
		C233.9,164.9,233.8,164.8,233.8,164.8z"/>
	<path fill="#FFFFFF" d="M208.3,43c3.2-2.6,6.4-1.8,9.7-0.4c-0.3,1.2-0.6,2.1-0.8,3.1c-0.2-0.4-0.4-0.8-0.6-1.2
		c-2.9,3.2-2.9,3.2-8.1,0.7c1.2-0.6,2.2-1.2,3.9-2.1C210.5,43,209.4,43,208.3,43z"/>
	<path fill="#FFFFFF" d="M230.9,43.2c-1.8-0.1-2.8-0.2-3.9-0.3c-0.1,0.2-0.1,0.4-0.2,0.6c0.9,0.4,1.8,0.8,3,1.4
		c-1.8,0.9-3.2,1.6-4.7,2.4c-1.2-1-2.4-2-3.7-3.1c0,1.2,0,2.3,0,3.4c0,0.9,0.1,1.8-0.1,2.7c-1.4-2.3-0.6-4.8-0.7-7.2
		c0-0.3,0.4-0.6,0.6-0.9C222.9,41.1,228.4,41.4,230.9,43.2z"/>
	<path fill="#FFFFFF" d="M244.2,48.8c0-1-0.1-2.1,1.5-1.7c1.6,0.4,2.7,1.3,2.9,3c0.2,1.8,0.2,3.7-2,4.7c0.2-1.9,0.6-3.5,0.3-5
		c-0.1-0.5-1.8-0.7-2.8-1.1C244.1,48.7,244.2,48.8,244.2,48.8z"/>
	<path fill="#FFFFFF" d="M237.2,40.9c2.2,0.8,4.2,1.6,6.1,2.3c-0.1,0.1-0.1,0.3-0.2,0.4c-1.6-0.3-3.2-0.6-5-1
		c-0.4,2.2,1.8,1.8,2.9,2.7C237.2,45.3,237.1,45.2,237.2,40.9z"/>
	<path fill="#FFFFFF" d="M212.5,58c3.9-1.3,7.8-1.9,11.8-0.1c-0.6,0.1-1.3,0.2-1.9,0.3c-2.6,0.1-5.2,0.3-7.8,0.3
		C213.9,58.4,213.2,58.1,212.5,58C212.5,57.9,212.5,58,212.5,58z"/>
	<path fill="#FFFFFF" d="M216.7,53.3c2.3,1.2,4.1-2.6,6.7-0.5C221.1,54.2,219.1,55.6,216.7,53.3z"/>
	<path fill="#FFFFFF" d="M229.9,27.7c0.7,1,1.3,2,2.1,3.1c1,0.1,2.1,0.3,3.1,0.4c0,0.2,0,0.4,0,0.5c-1.3,0.1-2.6,0.2-3.9,0.4
		c-0.6-1.5-1.1-2.8-1.6-4.2C229.7,27.8,229.8,27.7,229.9,27.7z"/>
	<path fill="#FFFFFF" d="M217,59.8c1.7,0,3.4,0,5.1,0c0,0.2,0,0.4,0,0.6c-1.7,0-3.4,0-5.1,0C217,60.2,217,60,217,59.8z"/>
	<path fill="#FFFFFF" d="M241.4,48.1c0.9,0.2,1.8,0.4,2.7,0.7c0,0-0.1-0.1-0.1-0.1c0.3,1.4,0.7,2.7,1,4.1c-0.1,0-0.3,0.1-0.4,0.1
		C243.6,51.3,242.6,49.6,241.4,48.1C241.5,48,241.4,48.1,241.4,48.1z"/>
	<path fill="#FFFFFF" d="M234.3,34.9c-0.8,0.2-1.7,0.4-2.5,0.6c0-0.2-0.1-0.4-0.1-0.6c0.8-0.2,1.7-0.4,2.5-0.6
		C234.2,34.5,234.2,34.7,234.3,34.9z"/>
	<path fill="#FFFFFF" d="M271.5,75.3c4.5-2.3,9.1-4.6,13.6-6.9c0.7-0.3,1.3-0.7,2-1l0.2,0.2c-1.9,1.4-3.6,3-5.6,4.2
		c-2.2,1.3-4.6,2.4-7,3.4C273.7,75.5,272.5,75.3,271.5,75.3L271.5,75.3z"/>
	<path fill="#FFFFFF" d="M315.9,49.5c1.3-0.8,2.6-1.6,3.9-2.4c0.1,0.2,0.2,0.4,0.4,0.6c-1.3,0.8-2.5,1.7-3.8,2.5
		C316.2,49.9,316.1,49.7,315.9,49.5z"/>
	<path fill="#FFFFFF" d="M261.9,69.4c-0.7,1-1.4,2-2.1,3c-0.2-0.1-0.4-0.2-0.5-0.4c0.7-1,1.4-2.1,2.1-3.1
		C261.5,69.1,261.7,69.3,261.9,69.4z"/>
	<path fill="#FFFFFF" d="M287,67.5c0.8-0.9,1.7-1.9,2.5-2.8c0.2,0.2,0.4,0.5,0.6,0.7c-1,0.8-2,1.5-3,2.3L287,67.5z"/>
	<path fill="#FFFFFF" d="M106.9,46.6c-2.9-0.4-2.9-0.4-3.6-3.1c0.8,0.7,1.4,1.2,1.9,1.7C105.7,45.7,106.3,46.1,106.9,46.6z"/>
	<path fill="#FFFFFF" d="M124.5,50.3c0.6,0.5,1.2,1.1,1.9,1.6c-0.1,0.1-0.2,0.3-0.3,0.4c-0.7-0.5-1.4-1-2.1-1.5
		C124.2,50.6,124.4,50.4,124.5,50.3z"/>
	<path fill="#FFFFFF" d="M145.6,334.5c2.3,1,4.6,1.9,6.8,3c15,7.5,30.8,12.3,47.3,14.6c23.9,3.4,47.2,0.7,69.9-7.2
		c16.1-5.7,30.9-13.9,44.4-24.5c1.5-1.2,3.3-2.2,4.9-3.3c-0.7,0.8-1.3,1.7-2.2,2.4c-20.4,16.5-43.5,27.5-69.3,32.4
		c-20.1,3.9-40.2,3.4-60.3-0.9c-13.7-3-26.7-8-39.1-14.5C147.2,336,146.4,335.1,145.6,334.5z"/>
	<path fill="#FFFFFF" d="M318.8,317.2c2.1-1.8,4.1-3.6,6.2-5.4C323.5,314.2,321.5,316.1,318.8,317.2z"/>
	<path fill="#FFFFFF" d="M117.6,308.7c2.4,1.8,4.8,3.5,7.1,5.4c17,14,36.1,24.2,57.4,29.9c16.6,4.4,33.4,5.8,50.5,4.3
		c24.2-2.1,46.3-10.2,66.7-23.1c0.9-0.6,2-0.9,3-1.4c-2.2,1.6-4.2,3.5-6.5,4.8c-17.5,10.4-36.3,17.2-56.5,20.1
		c-17.4,2.4-34.6,1.6-51.7-2.3c-22.3-5.1-42.4-14.9-60.3-29c-3-2.3-5.8-4.8-8.7-7.3C118.2,309.9,117.9,309.3,117.6,308.7z"/>
	<path fill="#FFFFFF" d="M302.2,324c1.3-1.1,2.5-2.3,3.9-3.3c2.5-1.8,5.1-3.4,7.6-5.2C310.4,319.2,306.7,322.1,302.2,324z"/>
	<path fill="#FFFFFF" d="M293.8,324c0.4-0.4,0.7-1,1.2-1.3c9.4-5.9,18.1-12.8,26.1-20.5c0.8-0.7,1.8-1.2,2.7-1.7
		c-3.8,3.7-7.4,7.6-11.5,10.9c-5,4.1-10.3,7.7-15.5,11.4C296,323.3,294.9,323.6,293.8,324z"/>
	<path fill="#FFFFFF" d="M133.5,310.3c1.2,0.7,2.4,1.2,3.5,2c16.6,12.1,34.7,20.7,54.9,24.9c24,5,47.8,3.7,71-4.2
		c7-2.4,13.6-5.8,20.4-8.7c1-0.4,2.1-0.7,3.1-1.1c-0.7,0.6-1.4,1.4-2.2,1.8c-17,8.9-35.1,14.2-54.3,15.8
		c-19.4,1.6-38.2-1.3-56.4-7.7c-13.7-4.8-26.4-11.9-38-20.6C134.7,311.8,134.1,311,133.5,310.3z"/>
	<path fill="#FFFFFF" d="M119.5,298.2c0.7,0.4,1.6,0.6,2.2,1.1c3.9,3.3,7.7,6.7,11.5,10.1c0.2,0.2,0.3,0.6,0.4,0.9
		c-2-1.4-4.1-2.7-6-4.3C124.8,303.5,122.2,300.8,119.5,298.2z"/>
	<path fill="#FFFFFF" d="M172.3,92.9c-5.8,0.5-22.6-3.6-24.9-5.7C155.3,89.1,163.5,90.9,172.3,92.9z"/>
	<path fill="#FFFFFF" d="M143.1,86.3c-0.1,0.9-0.3,1.8-0.4,2.7c-0.2,0-0.4-0.1-0.7-0.1c0.2-0.9,0.4-1.8,0.5-2.6
		C142.8,86.3,142.9,86.3,143.1,86.3z"/>
	<path fill="#FFFFFF" d="M269.2,93c7.5-3.5,15.5-2.9,23.2-4.4c-1.4,0.4-2.7,1.1-4.1,1.3c-5.9,1.1-11.8,2.1-17.7,3.1
		C270.2,93.1,269.8,93,269.2,93z"/>
	<path fill="#FFFFFF" d="M269,321.6c-1.5,0.8-2.9,1.8-4.5,2.3c-16.2,6-33,9-50.3,8.1c-22.2-1.2-43-7.4-62-19.2
		c-1.2-0.7-2.2-1.7-3.3-2.5c1,0.4,2.1,0.7,3,1.2c14.5,9,30.1,15,47,17.8c22.5,3.7,44.4,1.5,65.7-6.5
		C266.1,322.3,267.6,322,269,321.6z"/>
	<path fill="#FFFFFF" d="M299.3,303.5c-0.3,0.5-0.6,1.1-1,1.4c-8.6,6.8-17.9,12.3-27.9,16.6c-0.4,0.2-1,0.1-1.5,0.2
		c0.8-0.5,1.5-1.2,2.4-1.6c9.2-4.2,17.8-9.3,25.7-15.5C297.7,304.1,298.5,303.8,299.3,303.5z"/>
	<path fill="#FFFFFF" d="M132.8,291c7.2,6.2,14.5,12.1,22.5,17.2c0.2,0.1,0.2,0.4,0.3,0.6c-1-0.4-2.2-0.6-3-1.3
		c-6.2-4.8-12.4-9.6-18.6-14.5C133.4,292.6,133.2,291.7,132.8,291z"/>
	<path fill="#FFFFFF" d="M147.6,308.8c-0.9-0.3-2-0.4-2.7-1c-3.9-3-7.7-6.1-11.5-9.2c-0.3-0.3-0.5-0.8-0.7-1.3
		c0.4,0.2,1,0.2,1.3,0.5C138.6,301.5,143.1,305.2,147.6,308.8z"/>
	<path fill="#FFFFFF" d="M179.6,245.2c1.6,0,2.6,0.9,3.2,2.4C181.1,247.6,180.3,246.6,179.6,245.2z"/>
	<path fill="#FFFFFF" d="M293.1,296.8c1.6-1.3,3.1-2.6,4.7-3.9C296.8,294.9,295.2,296.1,293.1,296.8z"/>
	<path fill="#FFFFFF" d="M289.4,261.8c-2.1,3.5-4.7,6.5-8.5,8.4C283.8,267.5,286.6,264.7,289.4,261.8z"/>
	<path fill="#FFFFFF" d="M273.4,287.7c1.6-1,3.1-2.1,4.7-3.1C277,286.3,275.5,287.4,273.4,287.7z"/>
	<path fill="#FFFFFF" d="M331,330.7c-2,2.8-4.6,4.8-7.7,6.2C325.9,334.8,328.5,332.7,331,330.7z"/>
	<path fill="#FFFFFF" d="M323.5,336.7c-1.1,0.8-2.1,1.6-3.2,2.4C321.4,338.3,322.4,337.5,323.5,336.7z"/>
	<path fill="#FFFFFF" d="M201,34.7c1.2-0.2,2.4-0.4,3.6-0.5c0,0.2,0,0.4,0.1,0.5C203.4,34.7,202.2,34.7,201,34.7L201,34.7z"/>
</g>
</svg>
